<?xml version="1.0" encoding="utf-8"?>
<!-- Generator: Adobe Illustrator 15.1.0, SVG Export Plug-In . SVG Version: 6.00 Build 0)  -->
<!DOCTYPE svg PUBLIC "-//W3C//DTD SVG 1.1//EN" "http://www.w3.org/Graphics/SVG/1.1/DTD/svg11.dtd">
<svg version="1.1" id="Layer_1" xmlns="http://www.w3.org/2000/svg" xmlns:xlink="http://www.w3.org/1999/xlink" x="0px" y="0px"
	 width="850.39px" height="850.39px" viewBox="0 0 850.39 850.39" enable-background="new 0 0 850.39 850.39" xml:space="preserve">
<path opacity="0.6" fill="#231F20" enable-background="new    " d="M533.765,721.974c0.896-0.313,1.621-0.293,2.166,0.08
	c0.566,0.367,1.02,1.035,1.357,2.008l-1.434,0.504l-0.074-0.219c-0.066-0.191-0.133-0.355-0.189-0.494
	c-0.064-0.131-0.148-0.27-0.234-0.398c-0.096-0.131-0.189-0.236-0.289-0.301c-0.105-0.066-0.221-0.109-0.359-0.123
	c-0.152-0.021-0.303,0-0.463,0.057c-0.133,0.051-0.244,0.105-0.34,0.174c-0.096,0.076-0.17,0.146-0.234,0.217
	c-0.057,0.07-0.104,0.166-0.123,0.277c-0.039,0.105-0.059,0.203-0.066,0.297c-0.01,0.098,0,0.207,0.012,0.355l0.063,0.355
	c0.021,0.096,0.061,0.229,0.105,0.4c0.057,0.164,0.094,0.297,0.129,0.385c0.021,0.086,0.078,0.23,0.146,0.41
	c0.025,0.086,0.047,0.143,0.057,0.184c0.063,0.166,0.111,0.301,0.16,0.41c0.037,0.113,0.094,0.23,0.16,0.359
	c0.063,0.121,0.117,0.229,0.188,0.305c0.057,0.08,0.133,0.156,0.217,0.23c0.086,0.066,0.17,0.121,0.266,0.146
	c0.096,0.02,0.209,0.023,0.32,0.021c0.121-0.004,0.254-0.029,0.396-0.08c0.246-0.09,0.436-0.25,0.564-0.48
	c0.131-0.229,0.197-0.471,0.207-0.721l1.215-0.434l1.91,5.396l-4.428,1.568l-0.51-1.436l3.141-1.104l-0.771-2.459
	c-0.32,0.377-0.758,0.67-1.303,0.859c-0.33,0.109-0.633,0.17-0.914,0.154s-0.535-0.063-0.754-0.188
	c-0.227-0.113-0.434-0.279-0.623-0.496c-0.195-0.215-0.354-0.459-0.5-0.732c-0.148-0.26-0.279-0.57-0.402-0.92
	c-0.148-0.428-0.268-0.818-0.338-1.188c-0.076-0.357-0.113-0.727-0.113-1.088c0-0.354,0.057-0.68,0.17-0.963
	c0.104-0.281,0.293-0.539,0.535-0.771c0.25-0.24,0.58-0.42,0.975-0.564L533.765,721.974z M483.591,736.021l1.988,8.109l1.094-0.27
	l0.283,1.104c-0.68,0.443-1.084,0.938-1.207,1.469l-1.105,0.27l-2.533-10.32L483.591,736.021L483.591,736.021L483.591,736.021z
	 M478.212,737.224c0.555-0.133,1.074-0.115,1.535,0.053c0.453,0.17,0.838,0.457,1.131,0.859c0.301,0.406,0.52,0.906,0.67,1.51
	l1.072,4.426c0.248,0.955,0.211,1.752-0.082,2.395c-0.303,0.65-0.887,1.08-1.742,1.291c-0.85,0.213-1.564,0.104-2.131-0.344
	c-0.568-0.445-0.971-1.125-1.195-2.078l-1.086-4.422c-0.229-0.924-0.189-1.721,0.113-2.381
	C476.798,737.869,477.373,737.435,478.212,737.224L478.212,737.224z M478.513,738.439c-0.744,0.18-0.959,0.887-0.66,2.109
	l1.086,4.428c0.057,0.207,0.111,0.393,0.158,0.553c0.059,0.16,0.123,0.314,0.219,0.473c0.086,0.154,0.189,0.281,0.293,0.367
	c0.111,0.094,0.232,0.154,0.387,0.191c0.148,0.039,0.318,0.031,0.508-0.01c0.18-0.053,0.33-0.121,0.453-0.227
	c0.109-0.104,0.207-0.221,0.254-0.348c0.047-0.133,0.076-0.285,0.086-0.467c0.008-0.18,0-0.354-0.031-0.518
	c-0.023-0.166-0.063-0.355-0.102-0.563L480.07,740c-0.059-0.24-0.123-0.455-0.219-0.652c-0.084-0.189-0.18-0.373-0.299-0.543
	c-0.135-0.164-0.285-0.273-0.455-0.35c-0.178-0.063-0.369-0.068-0.584-0.018V738.439z M428.634,741.802l0.027,8.352h1.141v1.139
	c-0.764,0.279-1.264,0.656-1.518,1.141l-1.145,0.006l-0.025-10.631l1.518-0.006H428.634L428.634,741.802z M423.186,741.712
	c0.936,0,1.61,0.266,2.02,0.793c0.404,0.531,0.611,1.314,0.625,2.346l-1.529,0.006v-0.234c0-0.199-0.01-0.375-0.02-0.529
	c-0.021-0.145-0.047-0.299-0.086-0.449c-0.047-0.156-0.104-0.283-0.18-0.381c-0.074-0.1-0.17-0.18-0.293-0.238
	c-0.13-0.064-0.281-0.096-0.46-0.096c-0.134,0-0.257,0.021-0.378,0.055c-0.111,0.033-0.2,0.07-0.282,0.125
	c-0.075,0.049-0.149,0.123-0.218,0.213c-0.064,0.104-0.111,0.184-0.16,0.264c-0.035,0.086-0.064,0.199-0.104,0.34
	c-0.026,0.143-0.046,0.264-0.056,0.357c-0.021,0.098-0.027,0.229-0.04,0.408c0,0.18-0.009,0.313-0.009,0.402v0.637
	c0.01,0.17,0.01,0.313,0.01,0.436c0.012,0.127,0.02,0.254,0.04,0.395c0.02,0.145,0.046,0.26,0.071,0.355
	c0.03,0.094,0.076,0.188,0.135,0.281c0.058,0.1,0.123,0.17,0.207,0.223c0.075,0.061,0.171,0.104,0.294,0.131
	c0.11,0.039,0.243,0.059,0.396,0.053c0.266,0,0.5-0.086,0.697-0.264c0.196-0.174,0.34-0.383,0.426-0.617l1.298-0.006l0.021,5.729
	l-4.7,0.02v-1.52l3.313-0.014l0.084-2.578c-0.424,0.254-0.932,0.389-1.516,0.389c-0.34,0-0.642-0.049-0.905-0.15
	c-0.264-0.104-0.479-0.25-0.646-0.436c-0.182-0.18-0.313-0.404-0.427-0.67c-0.109-0.27-0.188-0.557-0.232-0.855
	c-0.046-0.301-0.064-0.633-0.074-1c0-0.457,0.027-0.867,0.074-1.236c0.05-0.359,0.133-0.723,0.244-1.063
	c0.124-0.34,0.284-0.627,0.479-0.855c0.2-0.23,0.454-0.414,0.774-0.553c0.313-0.141,0.688-0.205,1.112-0.211H423.186z
	 M369.734,738.308l-0.144,1.514l-2.996,3.533c-0.037,0.043-0.122,0.127-0.233,0.27c-0.12,0.133-0.206,0.236-0.244,0.277
	c-0.036,0.053-0.112,0.137-0.206,0.27c-0.104,0.127-0.17,0.229-0.207,0.297c-0.038,0.066-0.096,0.17-0.17,0.297
	c-0.066,0.127-0.123,0.244-0.15,0.342c-0.038,0.109-0.064,0.227-0.104,0.365c-0.028,0.141-0.06,0.273-0.066,0.42
	c-0.037,0.418,0.021,0.789,0.188,1.105c0.17,0.313,0.435,0.49,0.812,0.52c0.207,0.018,0.404-0.014,0.564-0.109
	c0.16-0.09,0.292-0.229,0.387-0.41c0.104-0.18,0.18-0.373,0.234-0.58c0.057-0.211,0.094-0.434,0.11-0.689l0.038-0.377l1.519,0.146
	l-0.037,0.383c-0.097,0.994-0.377,1.742-0.856,2.252c-0.473,0.5-1.17,0.715-2.082,0.625c-0.855-0.074-1.49-0.379-1.904-0.902
	c-0.402-0.525-0.563-1.225-0.479-2.092c0.028-0.326,0.086-0.631,0.17-0.902c0.086-0.283,0.198-0.545,0.35-0.795
	c0.144-0.25,0.273-0.451,0.396-0.611c0.122-0.164,0.282-0.361,0.5-0.607l2.958-3.152l-3.778-0.355l0.144-1.512l5.288,0.488
	L369.734,738.308z M360.924,737.375c0.576,0.057,1.059,0.24,1.436,0.551c0.386,0.313,0.642,0.703,0.79,1.188
	c0.15,0.48,0.198,1.021,0.133,1.645l-0.423,4.529c-0.085,0.98-0.377,1.721-0.876,2.232c-0.49,0.521-1.179,0.74-2.062,0.65
	c-0.868-0.074-1.51-0.424-1.896-1.02c-0.396-0.602-0.547-1.389-0.452-2.355l0.427-4.537c0.084-0.941,0.386-1.682,0.885-2.211
	c0.507-0.525,1.187-0.748,2.043-0.672H360.924L360.924,737.375z M360.811,738.619c-0.753-0.066-1.193,0.525-1.31,1.785l-0.423,4.535
	c-0.021,0.209-0.028,0.4-0.028,0.57c0,0.174,0.021,0.34,0.046,0.52c0.038,0.174,0.085,0.32,0.16,0.439
	c0.065,0.131,0.17,0.232,0.302,0.314c0.134,0.084,0.292,0.133,0.48,0.146c0.188,0.018,0.355-0.004,0.5-0.057
	c0.14-0.061,0.264-0.146,0.354-0.25c0.085-0.107,0.16-0.244,0.229-0.41c0.063-0.17,0.109-0.334,0.148-0.504
	c0.027-0.164,0.059-0.35,0.074-0.564l0.424-4.533c0.021-0.24,0.03-0.48,0.012-0.691c-0.012-0.205-0.047-0.414-0.112-0.605
	c-0.065-0.197-0.16-0.357-0.312-0.48C361.216,738.712,361.039,738.642,360.811,738.619L360.811,738.619z M317.443,727.072
	l-0.521,1.428l-3.797,2.662c-0.048,0.033-0.142,0.1-0.29,0.203c-0.152,0.104-0.256,0.174-0.304,0.211
	c-0.058,0.039-0.142,0.104-0.271,0.203c-0.132,0.1-0.218,0.18-0.272,0.234c-0.058,0.059-0.144,0.145-0.234,0.25
	c-0.104,0.105-0.18,0.207-0.235,0.293c-0.057,0.09-0.122,0.201-0.188,0.33c-0.067,0.117-0.135,0.25-0.182,0.393
	c-0.142,0.398-0.171,0.768-0.084,1.109c0.084,0.346,0.3,0.574,0.642,0.701c0.207,0.076,0.396,0.09,0.584,0.039
	c0.18-0.049,0.34-0.146,0.48-0.297c0.14-0.152,0.263-0.316,0.364-0.51c0.104-0.188,0.198-0.396,0.283-0.631l0.13-0.357l1.435,0.518
	l-0.134,0.357c-0.338,0.939-0.8,1.592-1.394,1.961c-0.584,0.377-1.311,0.404-2.177,0.094c-0.813-0.297-1.352-0.744-1.61-1.355
	c-0.256-0.611-0.237-1.328,0.056-2.148c0.112-0.307,0.235-0.59,0.396-0.834c0.149-0.25,0.33-0.475,0.537-0.674
	c0.205-0.207,0.385-0.373,0.534-0.494c0.158-0.123,0.367-0.283,0.633-0.467l3.664-2.305l-3.568-1.295l0.52-1.43L317.443,727.072
	L317.443,727.072z M309.198,723.972c0.896,0.326,1.434,0.803,1.63,1.441c0.198,0.643,0.123,1.438-0.228,2.412l-1.432-0.521
	l0.085-0.221c0.064-0.189,0.122-0.354,0.16-0.5c0.037-0.146,0.063-0.297,0.074-0.457c0.02-0.16,0.01-0.307-0.037-0.414
	c-0.027-0.117-0.095-0.229-0.197-0.334c-0.096-0.1-0.227-0.184-0.387-0.236c-0.133-0.047-0.255-0.072-0.377-0.084
	c-0.113-0.006-0.218,0-0.313,0.021c-0.094,0.02-0.188,0.063-0.271,0.127c-0.096,0.07-0.182,0.137-0.245,0.199
	c-0.065,0.063-0.132,0.15-0.208,0.277c-0.074,0.119-0.132,0.232-0.18,0.314c-0.048,0.09-0.104,0.211-0.172,0.381
	c-0.072,0.16-0.118,0.287-0.146,0.377c-0.038,0.09-0.086,0.23-0.15,0.41c-0.026,0.08-0.048,0.143-0.064,0.184
	c-0.059,0.16-0.112,0.293-0.144,0.41c-0.037,0.113-0.074,0.244-0.104,0.381c-0.036,0.141-0.047,0.256-0.059,0.359
	c0,0.098,0.012,0.201,0.028,0.313c0.021,0.105,0.057,0.201,0.112,0.275c0.058,0.08,0.133,0.154,0.233,0.227
	c0.097,0.076,0.207,0.131,0.352,0.18c0.255,0.096,0.498,0.09,0.754-0.004c0.233-0.096,0.439-0.24,0.61-0.436l1.217,0.441
	l-1.948,5.393l-4.42-1.602l0.52-1.42l3.118,1.123l0.971-2.387c-0.489,0.084-1.009,0.037-1.556-0.156
	c-0.33-0.117-0.593-0.273-0.8-0.463c-0.22-0.188-0.378-0.395-0.473-0.631c-0.096-0.227-0.15-0.484-0.16-0.771
	c-0.01-0.293,0.01-0.58,0.075-0.881c0.058-0.297,0.148-0.623,0.271-0.971c0.15-0.43,0.32-0.799,0.49-1.135
	c0.17-0.33,0.366-0.631,0.603-0.91c0.229-0.277,0.48-0.49,0.735-0.639c0.264-0.15,0.573-0.236,0.914-0.256
	c0.352-0.014,0.729,0.043,1.115,0.184v-0.002H309.198z M263.812,705.222c0.765,0.4,1.234,0.926,1.414,1.563
	c0.17,0.639,0.057,1.352-0.35,2.125l-0.18,0.334l-1.338-0.711c0.104-0.207,0.198-0.389,0.265-0.541
	c0.066-0.15,0.124-0.32,0.16-0.496c0.04-0.18,0.05-0.33,0.03-0.457c-0.02-0.131-0.076-0.26-0.17-0.385
	c-0.105-0.129-0.236-0.23-0.405-0.33c-0.18-0.09-0.35-0.139-0.5-0.146c-0.16-0.006-0.292,0.021-0.414,0.074
	c-0.122,0.055-0.244,0.15-0.366,0.281c-0.113,0.133-0.217,0.271-0.32,0.41c-0.085,0.146-0.188,0.318-0.292,0.531
	c-0.283,0.537-0.405,1.01-0.34,1.41c0.047,0.4,0.32,0.725,0.8,0.975l-0.705,1.344c-0.49-0.256-0.896-0.336-1.206-0.24
	c-0.3,0.09-0.593,0.385-0.847,0.875c-0.236,0.447-0.34,0.824-0.312,1.127c0.03,0.301,0.236,0.551,0.613,0.754
	c0.17,0.09,0.34,0.137,0.5,0.146c0.16,0.008,0.29-0.021,0.414-0.076c0.113-0.051,0.235-0.15,0.358-0.281
	c0.122-0.127,0.226-0.27,0.32-0.41c0.084-0.141,0.187-0.318,0.302-0.523l1.338,0.705l-0.17,0.334
	c-0.415,0.77-0.934,1.264-1.556,1.479c-0.642,0.215-1.33,0.129-2.093-0.27c-0.764-0.406-1.234-0.92-1.404-1.564
	c-0.18-0.645-0.064-1.348,0.34-2.121c0.282-0.531,0.632-0.904,1.047-1.125c0.424-0.213,0.876-0.27,1.355-0.188
	c-0.356-0.373-0.547-0.826-0.564-1.352c-0.01-0.52,0.143-1.088,0.463-1.703c0.462-0.883,1.008-1.471,1.647-1.758
	c0.635-0.289,1.36-0.213,2.17,0.209L263.812,705.222z M258.33,702.335c0.51,0.273,0.877,0.621,1.11,1.049
	c0.236,0.43,0.32,0.895,0.273,1.4c-0.036,0.49-0.206,1.02-0.498,1.564l-2.12,4.033c-0.452,0.861-1.008,1.439-1.658,1.73
	c-0.65,0.289-1.375,0.227-2.156-0.182c-0.782-0.416-1.234-0.977-1.366-1.68c-0.133-0.705,0.027-1.486,0.48-2.344l2.118-4.033
	c0.443-0.844,1-1.414,1.668-1.705c0.67-0.295,1.386-0.242,2.15,0.162L258.33,702.335z M257.746,703.437
	c-0.67-0.354-1.302,0.029-1.895,1.15l-2.12,4.027c-0.096,0.189-0.18,0.359-0.246,0.52c-0.064,0.154-0.112,0.32-0.15,0.494
	c-0.027,0.174-0.037,0.334-0.027,0.48c0.02,0.137,0.075,0.27,0.17,0.395c0.084,0.127,0.216,0.236,0.387,0.326
	c0.16,0.09,0.328,0.131,0.48,0.131c0.16,0,0.29-0.029,0.423-0.09c0.122-0.066,0.245-0.16,0.368-0.293
	c0.13-0.127,0.234-0.266,0.33-0.404c0.084-0.143,0.187-0.307,0.28-0.494l2.13-4.033c0.114-0.223,0.208-0.424,0.273-0.631
	c0.065-0.203,0.112-0.398,0.122-0.607c0.02-0.207-0.01-0.393-0.104-0.557C258.084,703.677,257.941,703.541,257.746,703.437
	L257.746,703.437z M220.819,677.72c0.67,0.537,1.037,1.135,1.095,1.795c0.057,0.66-0.188,1.338-0.735,2.02l-0.235,0.299
	l-1.188-0.941c0.142-0.184,0.264-0.354,0.358-0.486c0.094-0.145,0.18-0.299,0.254-0.461c0.065-0.16,0.112-0.313,0.112-0.443
	c0-0.127-0.027-0.264-0.104-0.404c-0.065-0.143-0.18-0.271-0.34-0.396c-0.15-0.127-0.302-0.201-0.46-0.234
	c-0.152-0.037-0.293-0.041-0.416-0.004c-0.133,0.027-0.265,0.1-0.404,0.207c-0.15,0.107-0.273,0.221-0.396,0.35
	c-0.112,0.117-0.244,0.273-0.387,0.469c-0.385,0.471-0.583,0.91-0.602,1.309c-0.02,0.41,0.18,0.777,0.603,1.117l-0.94,1.188
	c-0.434-0.344-0.81-0.494-1.13-0.463c-0.32,0.033-0.65,0.273-1,0.713c-0.31,0.393-0.48,0.74-0.51,1.035
	c-0.036,0.313,0.124,0.594,0.454,0.857c0.16,0.123,0.312,0.203,0.47,0.238c0.143,0.031,0.283,0.031,0.415,0.008
	c0.122-0.039,0.264-0.105,0.404-0.215c0.14-0.105,0.273-0.229,0.387-0.35c0.123-0.123,0.246-0.279,0.397-0.467l1.188,0.947
	l-0.235,0.297c-0.537,0.688-1.14,1.074-1.8,1.17c-0.66,0.098-1.328-0.125-1.997-0.656c-0.68-0.537-1.036-1.135-1.094-1.795
	c-0.058-0.664,0.187-1.342,0.734-2.02c0.367-0.473,0.78-0.771,1.234-0.904c0.45-0.137,0.903-0.113,1.364,0.063
	c-0.28-0.438-0.386-0.914-0.3-1.428c0.074-0.518,0.338-1.047,0.762-1.598c0.622-0.783,1.272-1.254,1.95-1.414
	C219.397,676.949,220.104,677.146,220.819,677.72L220.819,677.72z M216.005,673.9c0.744,0.584,1.103,1.215,1.084,1.879
	c-0.02,0.664-0.34,1.406-0.98,2.215l-1.188-0.941l0.14-0.188c0.124-0.16,0.236-0.303,0.313-0.424
	c0.084-0.127,0.16-0.262,0.226-0.404c0.057-0.15,0.095-0.283,0.095-0.41c0.01-0.117-0.028-0.244-0.086-0.371
	s-0.15-0.246-0.293-0.359c-0.112-0.078-0.217-0.148-0.32-0.189c-0.112-0.043-0.216-0.072-0.31-0.086
	c-0.096-0.01-0.198,0-0.303,0.037c-0.113,0.039-0.208,0.07-0.292,0.107c-0.085,0.043-0.18,0.104-0.293,0.197
	c-0.105,0.094-0.198,0.18-0.273,0.246c-0.065,0.063-0.16,0.164-0.272,0.297c-0.122,0.131-0.208,0.24-0.264,0.314
	c-0.065,0.072-0.15,0.189-0.272,0.34c-0.057,0.068-0.095,0.117-0.122,0.154c-0.104,0.131-0.198,0.248-0.265,0.344
	c-0.074,0.1-0.142,0.203-0.215,0.322c-0.076,0.123-0.134,0.229-0.16,0.318c-0.038,0.105-0.066,0.199-0.076,0.311
	c-0.02,0.109-0.01,0.213,0.02,0.303c0.02,0.094,0.074,0.188,0.14,0.287c0.066,0.098,0.17,0.195,0.273,0.285
	c0.218,0.17,0.452,0.238,0.717,0.229c0.265-0.01,0.5-0.076,0.726-0.209l1.008,0.797l-3.56,4.49l-3.687-2.916l0.952-1.189l2.6,2.061
	l1.667-1.955c-0.49-0.07-0.96-0.283-1.423-0.646c-0.264-0.215-0.47-0.443-0.61-0.686c-0.143-0.25-0.23-0.494-0.246-0.744
	c-0.01-0.25,0.01-0.51,0.095-0.793c0.084-0.271,0.197-0.547,0.357-0.811c0.15-0.266,0.34-0.537,0.564-0.828
	c0.283-0.355,0.557-0.664,0.82-0.92c0.27-0.262,0.556-0.484,0.866-0.676c0.302-0.191,0.604-0.309,0.903-0.365
	c0.303-0.059,0.613-0.041,0.952,0.047c0.33,0.094,0.658,0.268,0.988,0.531H216.005z M182.285,640.912l-2.083,1.758l1.95,2.322
	l-1.292,1.092l-6.473,1.965l-1.216-1.455l4.945-4.16l-0.754-0.896l1.105-0.924l0.753,0.898l2.092-1.764L182.285,640.912
	L182.285,640.912z M180.079,644.755l-0.98-1.162l-3.495,2.939l4.475-1.775V644.755L180.079,644.755z M178.412,636.14
	c0.377,0.443,0.584,0.91,0.64,1.396c0.048,0.49-0.037,0.949-0.27,1.395c-0.237,0.445-0.585,0.869-1.065,1.268l-3.486,2.936
	c-0.745,0.625-1.472,0.951-2.188,0.979c-0.716,0.021-1.356-0.314-1.93-0.99c-0.567-0.668-0.774-1.359-0.634-2.064
	c0.143-0.707,0.584-1.357,1.33-1.988l3.494-2.936c0.727-0.617,1.45-0.932,2.177-0.949c0.732-0.025,1.372,0.289,1.93,0.953
	L178.412,636.14z M177.46,636.945c-0.49-0.58-1.216-0.469-2.187,0.35l-3.484,2.93c-0.16,0.135-0.303,0.271-0.424,0.391
	c-0.113,0.113-0.228,0.254-0.33,0.4c-0.096,0.146-0.16,0.293-0.198,0.428c-0.037,0.131-0.037,0.273,0,0.434
	c0.028,0.145,0.113,0.297,0.236,0.441c0.12,0.148,0.254,0.25,0.396,0.307c0.142,0.063,0.292,0.09,0.424,0.076
	c0.143-0.014,0.292-0.061,0.462-0.127c0.16-0.07,0.312-0.156,0.452-0.256c0.132-0.098,0.282-0.207,0.452-0.352l3.486-2.93
	c0.188-0.16,0.35-0.326,0.49-0.486c0.14-0.154,0.254-0.33,0.348-0.51c0.095-0.188,0.133-0.375,0.113-0.564
	C177.686,637.292,177.601,637.109,177.46,636.945L177.46,636.945z M152.754,602.714l-2.402,1.291l1.44,2.676l-1.487,0.803
	l-6.728,0.605l-0.904-1.672l5.7-3.07l-0.556-1.025l1.263-0.688l0.557,1.031l2.402-1.291L152.754,602.714L152.754,602.714z
	 M149.814,606.023l-0.726-1.334l-4.014,2.162l4.74-0.83V606.023L149.814,606.023z M149.966,597.298
	c0.442,0.834,0.527,1.549,0.254,2.156c-0.272,0.605-0.876,1.16-1.78,1.654l-0.717-1.352l0.21-0.104
	c0.178-0.1,0.328-0.188,0.45-0.271c0.123-0.084,0.245-0.18,0.358-0.287c0.12-0.105,0.208-0.221,0.255-0.334
	c0.047-0.104,0.074-0.23,0.064-0.377c0-0.141-0.038-0.287-0.122-0.441c-0.065-0.117-0.142-0.223-0.227-0.309
	c-0.075-0.08-0.17-0.148-0.245-0.191c-0.085-0.053-0.18-0.08-0.292-0.096c-0.112-0.01-0.216-0.014-0.31-0.014
	c-0.096,0.006-0.207,0.029-0.35,0.076c-0.132,0.043-0.245,0.076-0.34,0.107c-0.094,0.035-0.216,0.096-0.376,0.16
	c-0.16,0.08-0.283,0.146-0.368,0.191l-0.376,0.201c-0.086,0.043-0.142,0.074-0.18,0.1c-0.15,0.08-0.273,0.146-0.377,0.207
	c-0.113,0.061-0.217,0.133-0.33,0.217c-0.112,0.08-0.207,0.16-0.282,0.236c-0.064,0.064-0.12,0.156-0.178,0.244
	c-0.066,0.096-0.096,0.193-0.104,0.291c-0.02,0.092-0.01,0.199,0.02,0.316c0.028,0.119,0.075,0.24,0.142,0.373
	c0.122,0.24,0.32,0.4,0.564,0.49c0.245,0.094,0.49,0.121,0.745,0.09l0.61,1.135l-5.04,2.725l-2.233-4.143l1.34-0.719l1.58,2.922
	l2.31-1.135c-0.424-0.26-0.782-0.641-1.055-1.154c-0.16-0.307-0.264-0.594-0.293-0.875c-0.038-0.283-0.01-0.543,0.064-0.777
	c0.085-0.236,0.218-0.467,0.396-0.693c0.188-0.219,0.405-0.424,0.64-0.604c0.246-0.182,0.53-0.355,0.858-0.529
	c0.396-0.219,0.77-0.389,1.122-0.529c0.34-0.131,0.697-0.221,1.055-0.271c0.358-0.053,0.68-0.047,0.98,0.02
	c0.29,0.063,0.573,0.207,0.848,0.42c0.278,0.217,0.512,0.508,0.71,0.875V597.298z M112.106,501.457
	c0.15,0.938-0.01,1.639-0.47,2.123c-0.462,0.477-1.207,0.801-2.225,0.961l-0.236-1.498l0.235-0.037
	c0.196-0.033,0.367-0.064,0.508-0.104c0.15-0.039,0.292-0.086,0.443-0.15c0.15-0.072,0.265-0.145,0.35-0.232
	c0.085-0.09,0.15-0.197,0.188-0.334c0.048-0.137,0.058-0.283,0.028-0.461c-0.028-0.133-0.065-0.256-0.113-0.355
	c-0.057-0.111-0.104-0.197-0.17-0.273c-0.064-0.068-0.142-0.131-0.245-0.18c-0.103-0.045-0.207-0.09-0.28-0.115
	c-0.086-0.02-0.208-0.039-0.35-0.043c-0.15-0.006-0.273-0.01-0.367-0.006c-0.095,0-0.235,0.01-0.404,0.029
	c-0.18,0.02-0.312,0.029-0.405,0.047c-0.103,0.02-0.244,0.043-0.433,0.076c-0.085,0.012-0.15,0.02-0.197,0.021
	c-0.17,0.025-0.312,0.057-0.425,0.076c-0.122,0.02-0.245,0.053-0.387,0.09c-0.133,0.043-0.244,0.086-0.34,0.133
	c-0.084,0.043-0.17,0.105-0.254,0.178c-0.085,0.063-0.15,0.143-0.188,0.229c-0.047,0.09-0.075,0.189-0.085,0.311
	c-0.02,0.121-0.02,0.256,0.01,0.398c0.038,0.264,0.16,0.48,0.357,0.65c0.207,0.17,0.435,0.27,0.68,0.33l0.207,1.273l-5.662,0.893
	l-0.735-4.637l1.498-0.234l0.527,3.277l2.554-0.305c-0.32-0.381-0.52-0.863-0.612-1.441c-0.057-0.334-0.047-0.645,0.01-0.924
	c0.065-0.277,0.17-0.516,0.33-0.713c0.15-0.191,0.35-0.361,0.604-0.52c0.245-0.146,0.52-0.271,0.8-0.359
	c0.293-0.086,0.623-0.166,0.98-0.229c0.453-0.064,0.856-0.107,1.233-0.117c0.368-0.018,0.736,0.02,1.085,0.09
	c0.357,0.061,0.66,0.18,0.924,0.334c0.254,0.16,0.48,0.391,0.658,0.678c0.19,0.301,0.312,0.654,0.377,1.068L112.106,501.457z
	 M111.136,495.302c0.144,0.936-0.01,1.641-0.478,2.125c-0.462,0.48-1.196,0.801-2.215,0.961l-0.234-1.498l0.235-0.037
	c0.19-0.025,0.368-0.063,0.51-0.102s0.293-0.086,0.442-0.156c0.143-0.061,0.265-0.137,0.35-0.225
	c0.085-0.086,0.142-0.199,0.188-0.33c0.037-0.133,0.047-0.293,0.02-0.463c-0.02-0.137-0.058-0.268-0.104-0.367
	c-0.057-0.1-0.113-0.197-0.17-0.27c-0.064-0.07-0.14-0.127-0.245-0.182c-0.103-0.051-0.206-0.08-0.29-0.109
	c-0.085-0.027-0.198-0.043-0.34-0.055c-0.15-0.006-0.273-0.006-0.367-0.006c-0.104,0.006-0.234,0.018-0.415,0.033
	c-0.17,0.021-0.31,0.037-0.404,0.057c-0.095,0.018-0.235,0.029-0.425,0.064l-0.197,0.033c-0.17,0.023-0.312,0.057-0.435,0.072
	c-0.112,0.023-0.245,0.059-0.377,0.098c-0.14,0.035-0.244,0.08-0.34,0.127c-0.083,0.045-0.178,0.102-0.253,0.172
	c-0.094,0.063-0.15,0.145-0.197,0.229c-0.038,0.092-0.065,0.193-0.085,0.314s-0.01,0.26,0.01,0.4
	c0.047,0.264,0.17,0.479,0.366,0.645c0.21,0.166,0.436,0.283,0.68,0.33l0.208,1.281l-5.662,0.896l-0.735-4.641l1.5-0.24l0.518,3.279
	l2.563-0.311c-0.32-0.383-0.527-0.857-0.612-1.438c-0.057-0.34-0.057-0.65,0.01-0.924c0.067-0.275,0.17-0.518,0.32-0.707
	c0.16-0.199,0.357-0.373,0.604-0.521c0.254-0.154,0.518-0.271,0.81-0.361c0.292-0.096,0.622-0.164,0.98-0.221
	c0.452-0.078,0.856-0.115,1.233-0.129c0.368-0.01,0.735,0.021,1.084,0.084c0.357,0.07,0.66,0.184,0.923,0.344
	c0.254,0.156,0.472,0.383,0.66,0.68c0.184,0.295,0.306,0.65,0.372,1.063L111.136,495.302z M111.09,396.366
	c-0.038,0.36-0.142,0.683-0.302,0.96c-0.16,0.278-0.35,0.505-0.595,0.684c-0.233,0.18-0.508,0.32-0.817,0.42
	c-0.312,0.105-0.643,0.17-1,0.19c-0.35,0.022-0.715,0.004-1.103-0.04l-3.392-0.41c-0.434-0.057-0.83-0.126-1.188-0.22
	c-0.356-0.095-0.706-0.228-1.018-0.392c-0.33-0.17-0.594-0.363-0.8-0.584c-0.218-0.226-0.368-0.5-0.472-0.83
	c-0.104-0.32-0.123-0.687-0.076-1.083c0.104-0.843,0.424-1.465,0.952-1.865c0.536-0.396,1.242-0.54,2.11-0.438l-0.19,1.507
	c-0.498-0.06-0.886-0.02-1.158,0.11c-0.273,0.13-0.435,0.414-0.48,0.838c-0.094,0.76,0.613,1.226,2.12,1.403l1.508,0.186
	c-0.462-0.354-0.65-0.882-0.564-1.598c0.047-0.425,0.17-0.777,0.35-1.06c0.187-0.287,0.423-0.496,0.726-0.628
	c0.3-0.132,0.63-0.217,0.988-0.243c0.358-0.033,0.764-0.02,1.226,0.037c0.49,0.057,0.933,0.16,1.338,0.31
	c0.396,0.143,0.745,0.34,1.046,0.585c0.302,0.245,0.527,0.546,0.67,0.913c0.14,0.37,0.177,0.783,0.122,1.25L111.09,396.366z
	 M109.63,396.748c0.12-0.142,0.197-0.32,0.226-0.533c0.028-0.217-0.01-0.41-0.095-0.57c-0.085-0.17-0.218-0.3-0.397-0.403
	c-0.18-0.105-0.377-0.185-0.575-0.246c-0.207-0.065-0.434-0.108-0.678-0.142l-0.35-0.037c-0.075-0.01-0.18-0.02-0.32-0.033
	c-0.142-0.01-0.255-0.014-0.33-0.014c-0.084,0-0.18,0-0.302,0.004c-0.112,0.004-0.207,0.015-0.28,0.037l-0.236,0.07
	c-0.104,0.037-0.17,0.074-0.228,0.122c-0.057,0.053-0.104,0.107-0.16,0.17c-0.057,0.064-0.103,0.145-0.132,0.235
	c-0.027,0.094-0.057,0.196-0.064,0.306c-0.057,0.485,0.15,0.89,0.612,1.22l1.507,0.18c0.255,0.034,0.49,0.048,0.696,0.034
	c0.218-0.01,0.415-0.043,0.613-0.1c0.21-0.063,0.37-0.16,0.49-0.302L109.63,396.748z M111.843,390.133
	c-0.11,0.942-0.46,1.574-1.035,1.913c-0.574,0.34-1.376,0.44-2.4,0.32l0.187-1.508l0.235,0.027c0.197,0.023,0.377,0.038,0.52,0.043
	c0.15,0.004,0.3-0.005,0.47-0.027c0.15-0.023,0.292-0.066,0.396-0.123c0.104-0.062,0.198-0.155,0.273-0.27
	c0.074-0.122,0.12-0.264,0.15-0.438c0.01-0.137,0.01-0.264-0.01-0.383c-0.02-0.112-0.057-0.217-0.085-0.302
	c-0.046-0.084-0.103-0.17-0.187-0.24c-0.094-0.08-0.17-0.137-0.245-0.187c-0.074-0.05-0.188-0.1-0.32-0.146
	c-0.142-0.048-0.253-0.077-0.35-0.105c-0.093-0.022-0.225-0.047-0.403-0.08c-0.18-0.032-0.312-0.053-0.405-0.062
	c-0.094-0.01-0.235-0.028-0.433-0.047c-0.085-0.02-0.15-0.024-0.188-0.028c-0.17-0.023-0.32-0.038-0.435-0.048
	c-0.123-0.01-0.255-0.014-0.396-0.014s-0.266,0.014-0.37,0.027c-0.093,0.023-0.187,0.057-0.29,0.1
	c-0.105,0.047-0.19,0.104-0.246,0.174c-0.064,0.07-0.12,0.164-0.17,0.27c-0.047,0.117-0.084,0.245-0.094,0.386
	c-0.037,0.273,0.02,0.515,0.17,0.73c0.15,0.222,0.34,0.387,0.565,0.504l-0.16,1.28l-5.682-0.688l0.556-4.66l1.507,0.18l-0.396,3.303
	l2.545,0.396c-0.198-0.452-0.265-0.97-0.198-1.55c0.047-0.34,0.132-0.637,0.264-0.882c0.144-0.254,0.303-0.452,0.51-0.594
	c0.198-0.15,0.443-0.265,0.718-0.34c0.28-0.074,0.573-0.117,0.885-0.128c0.302-0.004,0.632,0.01,1,0.058
	c0.45,0.053,0.855,0.128,1.215,0.222c0.357,0.086,0.697,0.217,1.027,0.377c0.32,0.16,0.584,0.354,0.79,0.575
	c0.197,0.226,0.35,0.51,0.453,0.84c0.093,0.336,0.11,0.708,0.063,1.122L111.843,390.133z M128.361,554.314
	c0.312,0.896,0.283,1.621-0.085,2.174c-0.377,0.557-1.046,0.998-2.024,1.342l-0.49-1.434l0.226-0.08
	c0.188-0.064,0.35-0.127,0.48-0.191c0.14-0.063,0.272-0.137,0.405-0.229c0.132-0.084,0.235-0.188,0.302-0.285
	c0.066-0.104,0.113-0.223,0.132-0.361c0.02-0.145,0-0.293-0.056-0.457c-0.048-0.133-0.104-0.24-0.17-0.346
	c-0.076-0.09-0.143-0.164-0.217-0.23c-0.074-0.057-0.17-0.1-0.272-0.133c-0.113-0.027-0.207-0.051-0.302-0.064
	c-0.095-0.016-0.207-0.01-0.35,0.018c-0.15,0.02-0.264,0.043-0.366,0.061c-0.095,0.021-0.228,0.053-0.396,0.105
	c-0.17,0.051-0.302,0.094-0.387,0.121c-0.095,0.029-0.227,0.086-0.414,0.143c-0.085,0.027-0.143,0.051-0.188,0.066
	c-0.16,0.061-0.292,0.104-0.404,0.145c-0.112,0.047-0.227,0.102-0.357,0.16c-0.132,0.066-0.235,0.127-0.31,0.184
	c-0.076,0.063-0.15,0.139-0.23,0.219c-0.074,0.09-0.12,0.176-0.14,0.27c-0.028,0.094-0.038,0.197-0.038,0.32
	c0.01,0.123,0.038,0.25,0.085,0.391c0.094,0.25,0.245,0.443,0.47,0.574c0.237,0.129,0.473,0.201,0.728,0.209l0.424,1.219
	l-5.408,1.877l-1.545-4.434l1.44-0.494l1.093,3.133l2.45-0.756c-0.378-0.32-0.66-0.754-0.85-1.305
	c-0.112-0.33-0.16-0.631-0.15-0.914c0.01-0.287,0.075-0.537,0.19-0.754c0.12-0.223,0.29-0.43,0.498-0.617
	c0.228-0.193,0.473-0.357,0.736-0.504c0.272-0.137,0.574-0.27,0.923-0.391c0.433-0.146,0.83-0.264,1.187-0.336
	c0.367-0.08,0.727-0.111,1.095-0.105c0.356,0.004,0.678,0.061,0.96,0.17c0.282,0.115,0.538,0.297,0.772,0.555
	c0.235,0.248,0.422,0.572,0.554,0.971L128.361,554.314z M126.298,548.378c0.198,0.547,0.226,1.055,0.104,1.529
	c-0.122,0.469-0.378,0.877-0.755,1.207c-0.377,0.334-0.856,0.604-1.44,0.811l-4.307,1.49c-0.924,0.32-1.725,0.365-2.394,0.129
	s-1.16-0.771-1.45-1.605c-0.283-0.838-0.235-1.559,0.15-2.158c0.377-0.605,1.036-1.064,1.95-1.389l4.306-1.494
	c0.896-0.309,1.696-0.348,2.384-0.104c0.69,0.24,1.17,0.768,1.45,1.584H126.298L126.298,548.378z M125.128,548.789
	c-0.253-0.717-0.97-0.873-2.165-0.453l-4.307,1.494c-0.197,0.068-0.387,0.141-0.537,0.207c-0.15,0.074-0.302,0.152-0.442,0.27
	c-0.15,0.096-0.264,0.205-0.34,0.32c-0.084,0.117-0.14,0.25-0.16,0.396c-0.02,0.158,0,0.326,0.057,0.508
	c0.067,0.174,0.152,0.324,0.267,0.434c0.11,0.105,0.234,0.18,0.377,0.213c0.13,0.037,0.29,0.059,0.47,0.047
	c0.17-0.01,0.35-0.039,0.51-0.068c0.16-0.041,0.35-0.105,0.546-0.17l4.308-1.492c0.234-0.084,0.44-0.17,0.63-0.277
	c0.19-0.096,0.36-0.217,0.51-0.354c0.16-0.141,0.255-0.305,0.312-0.48c0.043-0.186,0.032-0.385-0.034-0.59L125.128,548.789z
	 M105.814,451.82c0.01,0.359-0.046,0.689-0.17,0.992c-0.122,0.299-0.282,0.549-0.5,0.756c-0.206,0.207-0.46,0.381-0.762,0.525
	c-0.292,0.145-0.622,0.246-0.96,0.314c-0.35,0.066-0.717,0.104-1.105,0.104l-3.41,0.033c-0.434,0.006-0.84-0.014-1.216-0.063
	c-0.367-0.047-0.726-0.137-1.056-0.254c-0.348-0.133-0.63-0.281-0.875-0.479c-0.235-0.197-0.424-0.447-0.565-0.754
	c-0.142-0.316-0.217-0.67-0.217-1.064c-0.01-0.855,0.228-1.51,0.697-1.975c0.48-0.467,1.16-0.707,2.035-0.717l0.02,1.52
	c-0.51,0.006-0.887,0.09-1.14,0.266c-0.246,0.164-0.378,0.463-0.368,0.891c0.01,0.76,0.772,1.133,2.29,1.117l1.517-0.014
	c-0.51-0.287-0.764-0.791-0.772-1.514c-0.01-0.43,0.066-0.789,0.208-1.092c0.142-0.311,0.356-0.547,0.64-0.721
	c0.283-0.166,0.595-0.297,0.952-0.367c0.35-0.086,0.754-0.123,1.216-0.123c0.49-0.012,0.95,0.031,1.366,0.131
	c0.415,0.09,0.782,0.24,1.112,0.441c0.33,0.199,0.593,0.477,0.78,0.822c0.182,0.344,0.285,0.754,0.285,1.223H105.814z
	 M104.421,452.394c0.104-0.152,0.15-0.344,0.15-0.559c0-0.217-0.058-0.4-0.16-0.564c-0.113-0.148-0.265-0.264-0.452-0.344
	c-0.188-0.08-0.396-0.137-0.604-0.17c-0.216-0.033-0.44-0.047-0.695-0.047c-0.143,0.004-0.266,0.004-0.34,0.004
	c-0.075,0-0.19,0.006-0.33,0.014c-0.142,0.012-0.244,0.021-0.32,0.025c-0.084,0.01-0.18,0.027-0.3,0.047
	c-0.114,0.021-0.208,0.047-0.274,0.07c-0.065,0.027-0.14,0.063-0.226,0.105c-0.095,0.041-0.16,0.084-0.207,0.146
	c-0.047,0.057-0.095,0.119-0.143,0.189c-0.047,0.07-0.075,0.154-0.094,0.248c-0.02,0.096-0.028,0.203-0.028,0.313
	c0.01,0.49,0.265,0.859,0.772,1.129l1.517-0.014c0.256-0.004,0.48-0.023,0.69-0.064c0.216-0.037,0.413-0.09,0.602-0.18
	c0.19-0.076,0.34-0.193,0.445-0.35H104.421z M105.751,445.494c0.01,0.574-0.123,1.072-0.39,1.475c-0.27,0.414-0.64,0.715-1.1,0.91
	c-0.463,0.195-1,0.295-1.622,0.305l-4.56,0.043c-0.972,0.014-1.743-0.199-2.31-0.635c-0.564-0.434-0.85-1.094-0.857-1.988
	c-0.01-0.879,0.265-1.547,0.82-1.992c0.556-0.449,1.318-0.686,2.288-0.689l4.562-0.055c0.952-0.008,1.715,0.213,2.29,0.66
	C105.447,443.972,105.74,444.625,105.751,445.494L105.751,445.494z M104.505,445.503c-0.008-0.754-0.64-1.131-1.91-1.123
	l-4.552,0.053c-0.217,0.006-0.405,0.018-0.575,0.033c-0.17,0.021-0.33,0.053-0.51,0.096c-0.17,0.059-0.31,0.121-0.423,0.207
	c-0.113,0.08-0.207,0.193-0.273,0.334c-0.075,0.137-0.104,0.303-0.104,0.484c0,0.188,0.037,0.363,0.112,0.494
	c0.066,0.131,0.17,0.25,0.283,0.324c0.112,0.086,0.254,0.145,0.424,0.188c0.18,0.051,0.35,0.08,0.52,0.09
	c0.17,0.023,0.356,0.025,0.573,0.023l4.552-0.049c0.245-0.004,0.48-0.02,0.688-0.057c0.208-0.029,0.405-0.094,0.594-0.18
	c0.187-0.08,0.34-0.201,0.44-0.355c0.115-0.156,0.16-0.34,0.16-0.566L104.505,445.503z M527.191,707.802l-0.719,0.266l2.357,6.393
	l0.707-0.254L527.191,707.802L527.191,707.802z M475.99,722.646l-0.744,0.146l1.318,6.684l0.744-0.145L475.99,722.646z
	 M424.838,728.046h-0.754l-0.02,6.814h0.754l0.02-6.816V728.046z M365.375,723.197l-0.764-0.107l-0.98,6.746l0.754,0.107
	L365.375,723.197L365.375,723.197z M317.925,709.935l-0.717-0.264l-2.311,6.412l0.706,0.26L317.925,709.935z M270.409,687.289
	l-0.642-0.414l-3.692,5.73l0.64,0.41L270.409,687.289L270.409,687.289z M231.729,659.769l-0.573-0.506l-4.467,5.154l0.575,0.494
	l4.466-5.146L231.729,659.769z M195.295,623.101l-0.462-0.611l-5.454,4.09l0.462,0.607l5.455-4.084L195.295,623.101z
	 M170.675,589.582l-0.35-0.674l-6.066,3.104l0.35,0.682L170.675,589.582L170.675,589.582z M147.205,542.462l-0.197-0.736
	l-6.586,1.764l0.197,0.74L147.205,542.462L147.205,542.462z M133.157,495.294l-0.104-0.76l-6.755,0.924l0.104,0.754L133.157,495.294
	z M127.257,446.605v-0.76l-6.81,0.02v0.76L127.257,446.605z M129.651,396.022l0.094-0.758l-6.766-0.815l-0.095,0.76L129.651,396.022
	L129.651,396.022z"/>
<g opacity="0.6">
	<path fill="#231F20" d="M424.836,134.21c0,0.788-0.643,1.434-1.44,1.434c-0.782,0-1.413-0.646-1.413-1.428
		c0-0.797,0.632-1.433,1.413-1.433C424.194,132.783,424.836,133.419,424.836,134.21L424.836,134.21z M431.986,134.33
		c-0.02,0.78-0.67,1.412-1.459,1.394c-0.793-0.02-1.424-0.68-1.396-1.466c0.021-0.79,0.67-1.418,1.459-1.4
		c0.795,0.03,1.416,0.674,1.396,1.47V134.33z M417.675,134.263c0.021,0.79-0.604,1.44-1.396,1.465
		c-0.793,0.023-1.44-0.598-1.462-1.39c-0.021-0.8,0.595-1.446,1.386-1.47h0.048C417.023,132.868,417.654,133.49,417.675,134.263
		L417.675,134.263z M437.781,133.118c0.781,0.033,1.395,0.71,1.355,1.493c-0.037,0.788-0.705,1.396-1.488,1.367
		c-0.789-0.047-1.402-0.71-1.365-1.498c0.037-0.765,0.67-1.362,1.424-1.362H437.781L437.781,133.118z M410.523,134.49
		c0.035,0.785-0.564,1.46-1.356,1.497c-0.79,0.033-1.46-0.575-1.488-1.36c-0.05-0.798,0.564-1.467,1.355-1.504h0.063
		C409.853,133.123,410.484,133.716,410.523,134.49L410.523,134.49z M444.953,133.542c0.791,0.057,1.385,0.74,1.326,1.526
		c-0.059,0.782-0.742,1.385-1.525,1.324c-0.801-0.048-1.385-0.74-1.328-1.522c0.059-0.758,0.689-1.333,1.422-1.333
		C444.886,133.532,444.923,133.532,444.953,133.542L444.953,133.542z M403.38,134.875c0.06,0.792-0.536,1.48-1.327,1.53
		c-0.792,0.063-1.479-0.53-1.524-1.318c-0.065-0.796,0.537-1.48,1.328-1.53c0.036-0.005,0.064-0.005,0.095-0.005
		C402.703,133.552,403.324,134.122,403.38,134.875z M452.123,134.13c0.781,0.086,1.365,0.778,1.281,1.57
		c-0.066,0.777-0.773,1.36-1.557,1.285c-0.779-0.075-1.355-0.772-1.291-1.555c0.076-0.744,0.697-1.31,1.424-1.31
		C452.027,134.126,452.074,134.13,452.123,134.13z M396.25,135.445c0.074,0.786-0.5,1.483-1.29,1.56
		c-0.783,0.075-1.48-0.5-1.565-1.28c-0.073-0.793,0.512-1.49,1.29-1.57c0.05,0,0.097-0.005,0.146-0.005
		C395.551,134.15,396.172,134.71,396.25,135.445L396.25,135.445z M459.273,134.908v-0.005c0.779,0.095,1.348,0.81,1.242,1.593
		c-0.084,0.782-0.801,1.343-1.592,1.253c-0.781-0.095-1.338-0.812-1.254-1.593c0.094-0.727,0.715-1.264,1.422-1.264
		C459.15,134.902,459.216,134.902,459.273,134.908L459.273,134.908z M389.126,136.176c0.094,0.79-0.462,1.503-1.244,1.597
		c-0.782,0.09-1.498-0.467-1.603-1.248c-0.086-0.782,0.47-1.498,1.252-1.593c0.058-0.01,0.111-0.014,0.18-0.014
		C388.428,134.918,389.041,135.45,389.126,136.176L389.126,136.176z M466.396,135.855c0.789,0.104,1.328,0.84,1.205,1.62
		c-0.111,0.777-0.838,1.324-1.619,1.206c-0.781-0.11-1.316-0.838-1.205-1.62c0.104-0.71,0.727-1.224,1.412-1.224
		c0.078,0,0.143,0,0.209,0.02L466.396,135.855z M382.03,137.09c0.111,0.782-0.424,1.507-1.206,1.62
		c-0.78,0.113-1.507-0.424-1.63-1.206c-0.104-0.782,0.435-1.507,1.216-1.62c0.075-0.02,0.143-0.028,0.218-0.028
		C381.314,135.856,381.936,136.373,382.03,137.09L382.03,137.09z M473.501,136.967c0.781,0.128,1.301,0.867,1.168,1.64
		c-0.133,0.782-0.867,1.31-1.639,1.173h-0.014c-0.77-0.127-1.291-0.87-1.156-1.646c0.111-0.702,0.727-1.197,1.4-1.197
		c0.07-0.002,0.152,0.008,0.24,0.027V136.967z M374.955,138.163c0.133,0.782-0.387,1.522-1.168,1.65
		c-0.772,0.136-1.52-0.387-1.648-1.17c-0.134-0.77,0.387-1.512,1.167-1.648c0.085-0.01,0.16-0.028,0.245-0.028
		C374.228,136.967,374.841,137.477,374.955,138.163L374.955,138.163z M480.585,138.253c0.771,0.146,1.271,0.9,1.121,1.673
		c-0.15,0.777-0.904,1.286-1.678,1.13c-0.781-0.14-1.279-0.895-1.131-1.677c0.133-0.684,0.732-1.16,1.4-1.16
		C480.394,138.219,480.482,138.229,480.585,138.253L480.585,138.253z M367.907,139.417c0.16,0.78-0.357,1.526-1.13,1.682
		c-0.773,0.145-1.521-0.364-1.682-1.132c-0.14-0.777,0.36-1.53,1.134-1.682c0.093-0.02,0.187-0.028,0.28-0.028
		C367.181,138.257,367.773,138.732,367.907,139.417L367.907,139.417z M487.615,139.71c0.779,0.173,1.264,0.932,1.094,1.704
		s-0.934,1.258-1.697,1.09c-0.777-0.176-1.262-0.94-1.104-1.707c0.15-0.664,0.756-1.126,1.402-1.126
		C487.417,139.671,487.511,139.687,487.615,139.71L487.615,139.71z M360.896,140.84c0.172,0.768-0.318,1.535-1.081,1.705
		c-0.772,0.17-1.536-0.312-1.706-1.093c-0.172-0.764,0.312-1.536,1.084-1.705h0.01c0.096-0.02,0.198-0.038,0.303-0.038
		c0.65,0,1.244,0.465,1.395,1.13L360.896,140.84z M494.625,141.33v0.01c0.764,0.187,1.234,0.96,1.037,1.724
		c-0.189,0.772-0.949,1.234-1.725,1.055c-0.764-0.194-1.234-0.967-1.037-1.734c0.15-0.66,0.734-1.093,1.375-1.093
		c0.123,0,0.236,0.018,0.35,0.036V141.33z M353.925,142.427c0.188,0.76-0.283,1.546-1.047,1.734c-0.77,0.194-1.545-0.282-1.733-1.05
		c-0.188-0.768,0.283-1.545,1.048-1.734c0.112-0.027,0.235-0.037,0.34-0.037C353.181,141.34,353.756,141.777,353.925,142.427
		L353.925,142.427z M501.587,143.14c0.754,0.2,1.207,0.988,1.01,1.752c-0.217,0.763-1,1.215-1.764,1.008
		c-0.764-0.212-1.215-1-1.008-1.753c0.18-0.646,0.754-1.06,1.385-1.06c0.125-0.005,0.258,0.014,0.379,0.052L501.587,143.14z
		 M346.99,144.188c0.207,0.77-0.244,1.55-1.011,1.758c-0.764,0.207-1.555-0.245-1.761-1.008c-0.208-0.764,0.234-1.555,1.007-1.762
		c0.123-0.033,0.257-0.053,0.377-0.048C346.234,143.128,346.81,143.553,346.99,144.188L346.99,144.188z M508.503,145.103
		c0.754,0.227,1.189,1.014,0.961,1.786c-0.227,0.753-1.023,1.186-1.779,0.955c-0.754-0.22-1.188-1.02-0.959-1.78
		c0.178-0.617,0.75-1.022,1.363-1.02C508.23,145.041,508.373,145.06,508.503,145.103L508.503,145.103z M340.093,146.116
		c0.229,0.763-0.207,1.555-0.96,1.78c-0.755,0.227-1.563-0.202-1.782-0.96c-0.232-0.755,0.208-1.556,0.953-1.78
		c0.144-0.04,0.282-0.063,0.414-0.058C339.331,145.094,339.915,145.494,340.093,146.116L340.093,146.116z M515.373,147.237
		c0.744,0.24,1.158,1.046,0.924,1.795c-0.246,0.758-1.057,1.173-1.809,0.918c-0.756-0.24-1.17-1.045-0.916-1.8
		c0.189-0.603,0.756-0.98,1.357-0.98C515.082,147.17,515.222,147.194,515.373,147.237L515.373,147.237z M333.243,148.212
		c0.244,0.75-0.16,1.56-0.913,1.8c-0.744,0.245-1.556-0.17-1.79-0.923c-0.245-0.75,0.158-1.552,0.913-1.8
		c0.142-0.053,0.293-0.072,0.434-0.072C332.499,147.217,333.054,147.607,333.243,148.212L333.243,148.212z M522.212,149.546
		c0.734,0.264,1.131,1.083,0.857,1.828c-0.254,0.744-1.074,1.14-1.813,0.876c-0.752-0.26-1.139-1.084-0.885-1.828
		c0.207-0.584,0.764-0.96,1.355-0.96C521.892,149.462,522.052,149.492,522.212,149.546L522.212,149.546z M326.46,150.47
		c0.263,0.743-0.124,1.568-0.868,1.827c-0.744,0.255-1.563-0.132-1.827-0.876c-0.255-0.743,0.13-1.56,0.876-1.817
		c0.15-0.057,0.313-0.08,0.474-0.08C325.707,149.524,326.263,149.886,326.46,150.47L326.46,150.47z M528.98,152.023
		c0.742,0.282,1.109,1.107,0.838,1.847c-0.281,0.735-1.111,1.112-1.85,0.83c-0.734-0.28-1.111-1.104-0.83-1.848
		c0.219-0.565,0.756-0.923,1.33-0.918c0.17-0.01,0.34,0.033,0.51,0.09L528.98,152.023z M319.73,152.9
		c0.281,0.74-0.095,1.563-0.828,1.837c-0.734,0.282-1.563-0.085-1.849-0.82c-0.281-0.74,0.085-1.563,0.83-1.847
		c0.168-0.075,0.338-0.094,0.508-0.094C318.977,151.976,319.515,152.326,319.73,152.9L319.73,152.9z M535.695,154.662
		c0.727,0.302,1.084,1.14,0.783,1.865c-0.303,0.735-1.131,1.083-1.867,0.782c-0.73-0.298-1.08-1.132-0.777-1.862
		c0.225-0.55,0.754-0.89,1.326-0.89c0.18,0,0.357,0.03,0.537,0.104L535.695,154.662z M313.06,155.486
		c0.292,0.73-0.057,1.56-0.78,1.86c-0.733,0.302-1.572-0.057-1.875-0.78c-0.292-0.727,0.058-1.56,0.79-1.857
		c0.182-0.076,0.37-0.114,0.548-0.114C312.299,154.595,312.836,154.935,313.06,155.486L313.06,155.486z M542.33,157.46
		c0.734,0.32,1.063,1.164,0.742,1.89c-0.318,0.726-1.156,1.05-1.875,0.734c-0.715-0.31-1.055-1.163-0.732-1.88
		c0.23-0.546,0.754-0.857,1.313-0.857C541.953,157.347,542.15,157.38,542.33,157.46z M306.474,158.224
		c0.312,0.725-0.01,1.573-0.733,1.884c-0.729,0.315-1.563-0.01-1.876-0.734c-0.32-0.726,0-1.564,0.733-1.885v-0.006
		c0.18-0.08,0.376-0.117,0.557-0.117C305.719,157.366,306.237,157.686,306.474,158.224L306.474,158.224z M548.916,160.423
		c0.707,0.335,1.018,1.188,0.689,1.9c-0.33,0.725-1.189,1.03-1.904,0.696c-0.717-0.336-1.025-1.18-0.689-1.9
		c0.236-0.522,0.754-0.828,1.291-0.828c0.209,0,0.416,0.042,0.613,0.13V160.423z M299.964,161.12c0.33,0.72,0.027,1.57-0.697,1.9
		c-0.707,0.338-1.563,0.027-1.9-0.69c-0.33-0.715-0.02-1.572,0.694-1.91c0.2-0.086,0.406-0.128,0.605-0.124
		c0.535,0.005,1.054,0.302,1.3,0.824H299.964z M293.51,164.18c0.35,0.715,0.065,1.572-0.64,1.92c-0.708,0.35-1.574,0.066-1.924-0.64
		c-0.357-0.712-0.065-1.574,0.64-1.923c0.21-0.1,0.435-0.15,0.643-0.15C292.755,163.387,293.264,163.679,293.51,164.18
		L293.51,164.18z M555.406,163.547c0.717,0.35,1.01,1.206,0.65,1.917c-0.348,0.712-1.205,1.004-1.912,0.646
		c-0.717-0.35-1.018-1.206-0.66-1.912c0.254-0.51,0.754-0.802,1.291-0.802C554.994,163.396,555.21,163.443,555.406,163.547
		L555.406,163.547z M287.14,167.396c0.376,0.702,0.095,1.57-0.604,1.937c-0.697,0.367-1.573,0.104-1.933-0.603
		c-0.366-0.697-0.094-1.564,0.604-1.932c0.216-0.113,0.433-0.165,0.66-0.165C286.387,166.633,286.887,166.911,287.14,167.396
		L287.14,167.396z M561.814,166.825c0.715,0.368,0.98,1.234,0.604,1.937c-0.354,0.692-1.234,0.966-1.922,0.59
		c-0.697-0.358-0.959-1.226-0.604-1.928c0.254-0.485,0.744-0.768,1.262-0.768C561.38,166.656,561.615,166.722,561.814,166.825
		L561.814,166.825z M280.847,170.765c0.377,0.688,0.13,1.563-0.547,1.95c-0.697,0.386-1.563,0.132-1.95-0.547
		c-0.387-0.697-0.142-1.563,0.546-1.95c0.228-0.127,0.462-0.184,0.697-0.184C280.093,170.029,280.583,170.298,280.847,170.765
		L280.847,170.765z M568.166,170.255c0.689,0.387,0.932,1.254,0.547,1.95c-0.389,0.69-1.266,0.934-1.949,0.552
		c-0.688-0.39-0.926-1.258-0.549-1.945c0.268-0.472,0.744-0.735,1.254-0.735C567.703,170.077,567.937,170.137,568.166,170.255
		L568.166,170.255z M274.637,174.283c0.396,0.684,0.17,1.56-0.518,1.955c-0.67,0.405-1.547,0.18-1.95-0.51
		c-0.407-0.677-0.17-1.554,0.507-1.95c0.236-0.14,0.48-0.197,0.728-0.197c0.487,0,0.97,0.256,1.232,0.703L274.637,174.283z
		 M574.402,173.84c0.688,0.4,0.914,1.277,0.51,1.965c-0.396,0.674-1.27,0.896-1.939,0.5c-0.688-0.396-0.916-1.282-0.51-1.96
		c0.264-0.447,0.732-0.702,1.229-0.702C573.931,173.638,574.185,173.703,574.402,173.84L574.402,173.84z M268.503,177.963
		c0.415,0.664,0.217,1.545-0.46,1.96c-0.66,0.414-1.547,0.217-1.97-0.457c-0.406-0.67-0.208-1.55,0.46-1.975
		c0.235-0.14,0.5-0.206,0.755-0.206c0.48,0,0.952,0.227,1.215,0.68V177.963z M580.572,177.576c0.67,0.41,0.877,1.3,0.463,1.96
		c-0.424,0.684-1.311,0.886-1.969,0.462c-0.682-0.415-0.877-1.3-0.463-1.97c0.264-0.434,0.736-0.674,1.207-0.674
		C580.074,177.354,580.33,177.426,580.572,177.576L580.572,177.576z M262.464,181.77c0.434,0.664,0.244,1.545-0.405,1.98
		c-0.66,0.428-1.547,0.244-1.98-0.41c-0.435-0.66-0.255-1.546,0.414-1.975c0.234-0.16,0.51-0.236,0.77-0.236
		C261.738,181.119,262.189,181.354,262.464,181.77L262.464,181.77z M586.632,181.45c0.648,0.437,0.838,1.322,0.404,1.982
		c-0.436,0.645-1.318,0.843-1.98,0.404c-0.658-0.428-0.84-1.318-0.412-1.974c0.279-0.424,0.734-0.65,1.195-0.65
		C586.125,181.222,586.388,181.294,586.632,181.45L586.632,181.45z M256.518,185.727c0.452,0.66,0.282,1.545-0.366,1.997
		c-0.65,0.453-1.536,0.283-1.988-0.367c-0.453-0.654-0.283-1.545,0.367-1.997c0.245-0.165,0.527-0.245,0.812-0.245
		C255.793,185.115,256.247,185.325,256.518,185.727L256.518,185.727z M592.605,185.472c0.643,0.453,0.811,1.343,0.357,1.988
		c-0.451,0.65-1.338,0.81-1.996,0.367c-0.643-0.45-0.813-1.338-0.371-1.987c0.295-0.405,0.738-0.622,1.191-0.622
		c0.27,0,0.563,0.085,0.82,0.254H592.605L592.605,185.472z M250.677,189.84c0.46,0.636,0.32,1.526-0.312,1.992
		c-0.65,0.462-1.545,0.325-2.008-0.31c-0.46-0.65-0.32-1.537,0.32-2.008c0.245-0.18,0.547-0.264,0.84-0.264
		C249.952,189.245,250.393,189.448,250.677,189.84L250.677,189.84z M598.466,189.642c0.641,0.467,0.783,1.36,0.311,2.002
		c-0.449,0.64-1.354,0.772-1.994,0.31c-0.633-0.465-0.773-1.364-0.313-1.996c0.283-0.386,0.717-0.584,1.16-0.584
		C597.919,189.374,598.212,189.458,598.466,189.642L598.466,189.642z M244.92,194.084c0.48,0.622,0.357,1.526-0.265,1.997
		c-0.632,0.48-1.525,0.364-2.007-0.263c-0.48-0.62-0.357-1.526,0.265-2.007c0.254-0.192,0.563-0.292,0.866-0.292
		C244.212,193.519,244.636,193.719,244.92,194.084L244.92,194.084z M604.232,193.952c0.619,0.48,0.744,1.375,0.266,2.002
		c-0.473,0.627-1.377,0.744-2.01,0.26c-0.629-0.472-0.742-1.376-0.264-1.998c0.283-0.367,0.707-0.565,1.141-0.565
		C603.677,193.651,603.98,193.746,604.232,193.952L604.232,193.952z M239.275,198.466c0.5,0.617,0.396,1.517-0.226,2.016
		c-0.613,0.49-1.51,0.39-2.008-0.23c-0.49-0.617-0.396-1.513,0.217-2.012c0.263-0.207,0.583-0.31,0.895-0.31
		c0.425,0.003,0.84,0.177,1.12,0.536H239.275z M609.896,198.39c0.621,0.5,0.705,1.404,0.217,2.026
		c-0.488,0.603-1.396,0.702-2.006,0.207c-0.613-0.5-0.719-1.395-0.219-2.007c0.281-0.35,0.697-0.537,1.111-0.537
		c0.32,0,0.633,0.103,0.895,0.31L609.896,198.39z M233.725,202.98c0.51,0.606,0.435,1.507-0.16,2.016
		c-0.61,0.514-1.507,0.434-2.024-0.165c-0.508-0.607-0.423-1.507,0.18-2.016c0.265-0.23,0.594-0.34,0.924-0.34
		C233.04,202.475,233.445,202.645,233.725,202.98L233.725,202.98z M615.445,202.97c0.594,0.508,0.68,1.412,0.168,2.016
		c-0.518,0.604-1.412,0.68-2.016,0.17c-0.604-0.514-0.678-1.414-0.17-2.017c0.283-0.336,0.688-0.51,1.094-0.51
		c0.322,0,0.652,0.113,0.926,0.34L615.445,202.97z M228.3,207.633c0.527,0.594,0.47,1.49-0.123,2.017
		c-0.594,0.523-1.498,0.47-2.017-0.123c-0.527-0.588-0.473-1.488,0.122-2.012v-0.004c0.272-0.235,0.612-0.362,0.95-0.362
		C227.622,207.149,228.016,207.314,228.3,207.633L228.3,207.633z M620.882,207.685c0.605,0.514,0.648,1.418,0.121,2.007
		c-0.527,0.59-1.43,0.65-2.018,0.118c-0.594-0.52-0.648-1.418-0.119-2.007c0.277-0.32,0.68-0.485,1.063-0.49
		C620.277,207.313,620.607,207.435,620.882,207.685L620.882,207.685z M222.975,212.41c0.547,0.584,0.51,1.48-0.065,2.025
		c-0.584,0.537-1.488,0.51-2.025-0.075c-0.547-0.584-0.51-1.488,0.066-2.025c0.282-0.255,0.632-0.382,0.98-0.382
		C222.316,211.958,222.704,212.103,222.975,212.41L222.975,212.41z M626.195,212.514c0.594,0.537,0.621,1.44,0.084,2.026
		c-0.545,0.574-1.449,0.607-2.023,0.065s-0.604-1.44-0.064-2.017c0.271-0.307,0.658-0.452,1.035-0.452
		C625.583,212.136,625.931,212.259,626.195,212.514L626.195,212.514z M217.774,217.31c0.548,0.574,0.537,1.48-0.02,2.03
		c-0.574,0.552-1.478,0.542-2.034-0.023c-0.547-0.565-0.537-1.47,0.028-2.025c0.272-0.265,0.64-0.405,1.008-0.405
		C217.126,216.887,217.492,217.037,217.774,217.31z M631.406,217.48c0.564,0.545,0.574,1.45,0.027,2.015
		c-0.555,0.565-1.461,0.575-2.025,0.028c-0.564-0.546-0.584-1.46-0.02-2.025c0.264-0.292,0.641-0.43,1.018-0.43
		c0.359,0,0.727,0.138,1,0.41V217.48L631.406,217.48z M212.686,222.35c0.557,0.548,0.574,1.46,0.028,2.026h-0.01
		c-0.546,0.565-1.45,0.57-2.018,0.02c-0.563-0.552-0.573-1.45-0.026-2.02c0.28-0.288,0.648-0.43,1.025-0.425
		C212.045,221.951,212.405,222.083,212.686,222.35L212.686,222.35z M636.494,222.567c0.547,0.556,0.537,1.47-0.027,2.02
		c-0.563,0.553-1.469,0.533-2.021-0.022c-0.561-0.565-0.547-1.475,0.023-2.03c0.271-0.26,0.631-0.41,1-0.41
		C635.835,222.129,636.212,222.275,636.494,222.567L636.494,222.567z M207.72,227.514c0.576,0.537,0.605,1.44,0.076,2.017
		c-0.537,0.575-1.44,0.613-2.025,0.066c-0.572-0.532-0.602-1.44-0.073-2.017c0.28-0.307,0.67-0.452,1.046-0.452
		c0.347-0.005,0.706,0.122,0.978,0.386H207.72z M641.441,227.764c0.545,0.58,0.51,1.488-0.076,2.02
		c-0.574,0.538-1.469,0.51-2.008-0.074h-0.01c-0.527-0.575-0.498-1.483,0.076-2.017c0.283-0.26,0.629-0.386,0.969-0.386
		c0.398,0,0.775,0.155,1.047,0.457H641.441z M202.878,232.78c0.584,0.528,0.65,1.433,0.123,2.026
		c-0.527,0.573-1.432,0.63-2.007,0.11c-0.604-0.53-0.65-1.43-0.132-2.02c0.283-0.314,0.68-0.484,1.074-0.484
		c0.33,0,0.67,0.128,0.944,0.368H202.878z M646.283,233.092c0.52,0.59,0.463,1.488-0.133,2.018c-0.584,0.518-1.486,0.466-2.016-0.13
		c-0.527-0.587-0.471-1.48,0.113-2.01c0.279-0.24,0.619-0.362,0.949-0.362C645.597,232.605,645.99,232.768,646.283,233.092z
		 M198.167,238.17c0.612,0.505,0.68,1.413,0.17,2.012c-0.51,0.604-1.414,0.685-2.017,0.166c-0.604-0.505-0.68-1.408-0.17-2.008
		c0.282-0.34,0.696-0.514,1.093-0.514C197.573,237.826,197.903,237.936,198.167,238.17z M650.974,238.52
		c0.512,0.604,0.438,1.508-0.168,2.012c-0.604,0.522-1.498,0.438-2.018-0.165c-0.51-0.603-0.438-1.507,0.17-2.01
		c0.27-0.237,0.604-0.347,0.924-0.347C650.298,238.02,650.703,238.188,650.974,238.52L650.974,238.52z M193.588,243.668
		c0.612,0.495,0.706,1.39,0.217,2.007c-0.5,0.612-1.395,0.71-2.017,0.222c-0.612-0.498-0.707-1.403-0.217-2.017
		c0.283-0.35,0.697-0.532,1.12-0.532C193.005,243.348,193.315,243.461,193.588,243.668L193.588,243.668z M655.556,244.068
		c0.488,0.61,0.387,1.517-0.227,2.007c-0.623,0.51-1.521,0.396-2.018-0.218c-0.5-0.616-0.396-1.517,0.227-2.012
		c0.254-0.212,0.574-0.313,0.887-0.313c0.414,0,0.828,0.19,1.129,0.538L655.556,244.068z M189.13,249.277
		c0.633,0.478,0.746,1.377,0.274,2.01c-0.48,0.625-1.386,0.732-2.008,0.253c-0.63-0.476-0.743-1.366-0.272-1.997
		c0.292-0.368,0.707-0.564,1.14-0.564C188.564,248.979,188.877,249.079,189.13,249.277L189.13,249.277z M659.982,249.727
		c0.473,0.617,0.35,1.52-0.279,2.002c-0.623,0.476-1.521,0.357-2-0.27c-0.471-0.627-0.357-1.53,0.273-2.002
		c0.254-0.198,0.557-0.297,0.867-0.297c0.424-0.004,0.848,0.195,1.141,0.567H659.982z M184.815,254.998
		c0.65,0.462,0.773,1.355,0.32,1.993c-0.46,0.646-1.365,0.787-1.997,0.316c-0.64-0.463-0.782-1.356-0.312-1.998
		c0.283-0.387,0.707-0.584,1.15-0.584C184.279,254.725,184.561,254.812,184.815,254.998L184.815,254.998z M664.271,255.48
		c0.469,0.636,0.328,1.536-0.311,2c-0.633,0.458-1.527,0.316-2.008-0.318c-0.453-0.636-0.303-1.53,0.328-1.992
		c0.246-0.192,0.549-0.278,0.84-0.278C663.556,254.892,664,255.092,664.271,255.48L664.271,255.48z M180.64,260.812
		c0.643,0.446,0.813,1.338,0.368,1.987c-0.452,0.65-1.347,0.813-1.997,0.36c-0.64-0.446-0.81-1.343-0.356-1.986
		c0.272-0.392,0.717-0.616,1.178-0.616c0.283,0,0.564,0.075,0.81,0.254L180.64,260.812z M668.425,261.33
		c0.443,0.648,0.293,1.545-0.377,1.986c-0.641,0.457-1.525,0.29-1.979-0.36c-0.453-0.647-0.307-1.54,0.365-1.983
		c0.232-0.175,0.525-0.25,0.811-0.25C667.71,260.723,668.152,260.93,668.425,261.33z M176.61,266.738
		c0.648,0.424,0.848,1.318,0.404,1.974c-0.434,0.664-1.318,0.85-1.97,0.405c-0.67-0.424-0.848-1.314-0.415-1.98
		c0.272-0.42,0.726-0.645,1.196-0.645c0.265,0,0.54,0.076,0.783,0.246H176.61z M672.451,267.29c0.422,0.653,0.232,1.545-0.426,1.974
		c-0.65,0.434-1.555,0.254-1.98-0.41c-0.432-0.654-0.242-1.54,0.416-1.97c0.234-0.164,0.521-0.235,0.771-0.235
		C671.705,266.644,672.167,266.864,672.451,267.29L672.451,267.29z M172.718,272.75c0.68,0.414,0.876,1.3,0.452,1.975
		c-0.415,0.664-1.29,0.87-1.97,0.45c-0.66-0.414-0.866-1.305-0.45-1.964c0.263-0.437,0.732-0.687,1.214-0.687
		C172.219,272.524,172.482,272.608,172.718,272.75z M676.302,273.333c0.424,0.674,0.217,1.55-0.449,1.965
		c-0.67,0.42-1.557,0.222-1.971-0.457c-0.426-0.668-0.217-1.55,0.451-1.958c0.234-0.15,0.5-0.222,0.754-0.222
		C675.566,272.661,676.039,272.911,676.302,273.333L676.302,273.333z M168.968,278.855c0.688,0.4,0.914,1.28,0.52,1.96
		c-0.405,0.687-1.29,0.904-1.97,0.51c-0.68-0.397-0.904-1.277-0.51-1.96c0.273-0.453,0.744-0.697,1.234-0.697
		C168.488,278.658,168.742,278.728,168.968,278.855L168.968,278.855z M680.023,279.473c0.396,0.684,0.17,1.56-0.508,1.954
		c-0.68,0.405-1.563,0.185-1.949-0.5c-0.416-0.687-0.182-1.56,0.5-1.96c0.232-0.13,0.471-0.2,0.725-0.2
		c0.49,0,0.963,0.256,1.234,0.706H680.023z M165.378,285.064c0.688,0.386,0.933,1.248,0.547,1.94
		c-0.387,0.687-1.254,0.937-1.95,0.552c-0.697-0.388-0.934-1.25-0.547-1.947c0.264-0.466,0.744-0.727,1.253-0.727
		c0.237,0.002,0.472,0.05,0.698,0.18L165.378,285.064z M683.595,285.7c0.389,0.684,0.123,1.555-0.555,1.937
		c-0.689,0.39-1.564,0.146-1.939-0.547c-0.387-0.688-0.143-1.555,0.547-1.945c0.217-0.127,0.471-0.185,0.688-0.185
		C682.843,284.97,683.333,285.232,683.595,285.7z M161.92,291.344c0.707,0.372,0.97,1.23,0.603,1.938
		c-0.366,0.697-1.225,0.97-1.93,0.604c-0.698-0.373-0.972-1.234-0.605-1.94c0.255-0.48,0.754-0.765,1.27-0.765
		C161.488,291.181,161.713,291.235,161.92,291.344L161.92,291.344z M687.015,292c0.357,0.706,0.096,1.566-0.604,1.936
		c-0.707,0.367-1.564,0.1-1.939-0.6c-0.367-0.706-0.096-1.562,0.594-1.93c0.217-0.114,0.451-0.166,0.678-0.16
		C686.263,291.234,686.753,291.52,687.015,292L687.015,292z M158.632,297.718c0.707,0.35,0.998,1.2,0.65,1.923
		c-0.35,0.702-1.207,0.99-1.913,0.643c-0.717-0.358-1.01-1.206-0.66-1.913c0.244-0.51,0.763-0.8,1.29-0.8
		C158.207,297.567,158.424,297.621,158.632,297.718L158.632,297.718z M690.275,298.396c0.35,0.7,0.057,1.562-0.648,1.907
		c-0.707,0.354-1.557,0.07-1.922-0.636c-0.352-0.712-0.059-1.574,0.648-1.923c0.207-0.104,0.424-0.15,0.631-0.15
		C689.513,297.596,690.021,297.889,690.275,298.396z M693.376,304.852c0.328,0.715,0.025,1.567-0.689,1.902
		c-0.725,0.33-1.561,0.023-1.9-0.697c-0.32-0.705-0.02-1.562,0.697-1.902c0.195-0.08,0.395-0.133,0.594-0.127
		C692.611,304.025,693.13,304.333,693.376,304.852L693.376,304.852z M155.495,304.163c0.716,0.34,1.025,1.188,0.696,1.903
		c-0.338,0.716-1.177,1.025-1.9,0.697c-0.717-0.34-1.028-1.18-0.698-1.896v-0.01c0.245-0.52,0.764-0.828,1.3-0.828
		C155.099,304.029,155.297,304.077,155.495,304.163L155.495,304.163z M696.324,311.385c0.32,0.72-0.01,1.564-0.744,1.885
		c-0.727,0.315-1.563-0.015-1.875-0.738c-0.32-0.717,0.01-1.564,0.734-1.885c0.188-0.076,0.377-0.113,0.564-0.113
		C695.56,310.532,696.089,310.854,696.324,311.385L696.324,311.385z M152.507,310.69c0.726,0.316,1.056,1.16,0.745,1.887
		c-0.32,0.716-1.17,1.05-1.885,0.73c-0.727-0.308-1.057-1.147-0.735-1.876c0.227-0.542,0.754-0.862,1.312-0.862
		c0.178,0.01,0.376,0.04,0.563,0.123V310.69z M699.113,317.984c0.291,0.734-0.057,1.568-0.789,1.865
		c-0.729,0.296-1.564-0.058-1.857-0.788c-0.299-0.73,0.047-1.562,0.771-1.86c0.18-0.074,0.367-0.112,0.557-0.112
		C698.349,317.089,698.888,317.429,699.113,317.984L699.113,317.984z M149.69,317.292c0.726,0.297,1.074,1.136,0.78,1.86
		c-0.3,0.727-1.13,1.084-1.853,0.783c-0.735-0.297-1.095-1.132-0.792-1.86c0.227-0.558,0.764-0.896,1.33-0.892
		C149.333,317.18,149.511,317.223,149.69,317.292L149.69,317.292z M701.751,324.675c0.281,0.734-0.096,1.564-0.838,1.847
		c-0.729,0.282-1.557-0.095-1.838-0.834c-0.273-0.73,0.094-1.56,0.816-1.842c0.182-0.063,0.359-0.095,0.527-0.095
		C700.988,323.751,701.525,324.106,701.751,324.675L701.751,324.675z M147.034,323.954c0.733,0.276,1.103,1.11,0.83,1.842
		c-0.284,0.735-1.113,1.112-1.85,0.834c-0.733-0.276-1.11-1.106-0.828-1.853c0.218-0.56,0.764-0.918,1.338-0.918
		C146.694,323.859,146.864,323.892,147.034,323.954L147.034,323.954z M704.22,331.432c0.254,0.743-0.131,1.563-0.885,1.822
		c-0.736,0.27-1.545-0.128-1.818-0.876c-0.256-0.745,0.131-1.56,0.887-1.824c0.148-0.05,0.311-0.075,0.463-0.075
		C703.457,330.474,704.013,330.836,704.22,331.432L704.22,331.432z M144.527,330.688c0.754,0.264,1.15,1.082,0.886,1.826
		c-0.272,0.745-1.083,1.137-1.827,0.877c-0.745-0.27-1.14-1.083-0.877-1.837c0.206-0.574,0.763-0.95,1.355-0.95
		C144.214,330.604,144.374,330.631,144.527,330.688L144.527,330.688z M706.521,338.243c0.254,0.743-0.16,1.555-0.914,1.8
		c-0.744,0.24-1.545-0.165-1.791-0.924c-0.254-0.746,0.17-1.556,0.914-1.79c0.141-0.06,0.291-0.08,0.434-0.08
		c0.611,0.008,1.168,0.39,1.355,0.993L706.521,338.243z M142.2,337.48c0.754,0.245,1.158,1.04,0.914,1.794
		c-0.235,0.75-1.047,1.168-1.8,0.914c-0.744-0.24-1.158-1.037-0.915-1.79c0.197-0.607,0.754-0.984,1.356-0.984
		C141.907,337.414,142.048,337.434,142.2,337.48L142.2,337.48z M708.667,345.104c0.229,0.763-0.197,1.55-0.949,1.78
		c-0.766,0.226-1.557-0.202-1.781-0.962c-0.229-0.76,0.199-1.555,0.949-1.78c0.145-0.038,0.283-0.063,0.416-0.063
		C707.914,344.084,708.48,344.479,708.667,345.104L708.667,345.104z M140.033,344.296c0.764,0.23,1.188,1.02,0.97,1.786
		c-0.227,0.76-1.017,1.178-1.78,0.96c-0.754-0.233-1.196-1.026-0.97-1.778c0.187-0.623,0.753-1.022,1.375-1.022
		C139.758,344.24,139.9,344.264,140.033,344.296L140.033,344.296z M710.636,352.018c0.211,0.765-0.232,1.547-1.008,1.764
		c-0.754,0.2-1.555-0.245-1.752-1.01c-0.207-0.763,0.234-1.555,1.008-1.762c0.123-0.033,0.246-0.047,0.377-0.047
		C709.89,350.963,710.468,351.387,710.636,352.018L710.636,352.018z M138.044,351.175c0.764,0.207,1.206,0.994,1.01,1.748
		c-0.21,0.772-1,1.215-1.764,1.02c-0.763-0.214-1.215-1-1.008-1.765c0.17-0.64,0.754-1.055,1.385-1.055
		C137.791,351.123,137.922,351.143,138.044,351.175L138.044,351.175z M712.445,358.973c0.18,0.77-0.279,1.555-1.055,1.74
		c-0.764,0.19-1.537-0.28-1.725-1.05c-0.191-0.77,0.279-1.535,1.045-1.728c0.133-0.027,0.236-0.037,0.35-0.037
		C711.691,357.896,712.287,358.326,712.445,358.973L712.445,358.973z M136.216,358.096c0.764,0.188,1.234,0.96,1.047,1.73
		c-0.188,0.767-0.96,1.228-1.725,1.05c-0.772-0.198-1.234-0.97-1.057-1.734c0.16-0.648,0.746-1.088,1.397-1.088
		c0.114,0,0.226,0.012,0.34,0.042H136.216L136.216,358.096z M714.085,365.977c0.17,0.772-0.32,1.537-1.094,1.7
		c-0.771,0.18-1.535-0.31-1.705-1.077c-0.17-0.777,0.313-1.54,1.094-1.705c0.105-0.023,0.209-0.033,0.313-0.033
		c0.65-0.003,1.242,0.45,1.395,1.115H714.085L714.085,365.977z M134.567,365.05c0.765,0.168,1.264,0.933,1.085,1.704
		c-0.17,0.77-0.935,1.264-1.706,1.094c-0.772-0.17-1.254-0.934-1.094-1.716c0.15-0.66,0.744-1.106,1.404-1.106
		C134.35,365.026,134.464,365.029,134.567,365.05L134.567,365.05z M715.537,373.02c0.17,0.772-0.35,1.526-1.119,1.68
		c-0.775,0.148-1.529-0.36-1.68-1.133c-0.16-0.77,0.35-1.525,1.121-1.676c0.096-0.02,0.188-0.028,0.271-0.028
		C714.82,371.86,715.404,372.343,715.537,373.02L715.537,373.02z M133.07,372.05c0.77,0.15,1.28,0.904,1.14,1.677
		c-0.16,0.782-0.904,1.287-1.677,1.13c-0.782-0.15-1.28-0.895-1.13-1.677c0.132-0.683,0.716-1.158,1.394-1.158
		C132.89,372.029,132.984,372.04,133.07,372.05L133.07,372.05z M716.837,380.096c0.131,0.772-0.389,1.518-1.168,1.65
		c-0.783,0.13-1.527-0.397-1.65-1.17c-0.139-0.782,0.396-1.526,1.16-1.648c0.084-0.015,0.16-0.02,0.244-0.02
		C716.111,378.908,716.724,379.398,716.837,380.096L716.837,380.096z M131.76,379.088c0.782,0.132,1.31,0.866,1.168,1.648
		c-0.132,0.777-0.866,1.31-1.647,1.168c-0.77-0.133-1.3-0.866-1.168-1.648c0.112-0.697,0.727-1.188,1.403-1.188
		C131.6,379.068,131.676,379.073,131.76,379.088L131.76,379.088z M717.96,387.2c0.109,0.782-0.438,1.503-1.219,1.62
		c-0.779,0.113-1.508-0.434-1.619-1.207c-0.113-0.78,0.424-1.506,1.205-1.62c0.063-0.02,0.143-0.022,0.207-0.022
		c0.707,0,1.32,0.514,1.424,1.23L717.96,387.2z M130.61,386.154c0.782,0.113,1.328,0.84,1.216,1.62
		c-0.112,0.782-0.838,1.33-1.62,1.206c-0.782-0.112-1.33-0.838-1.216-1.61c0.104-0.718,0.717-1.24,1.423-1.24
		C130.478,386.136,130.553,386.145,130.61,386.154L130.61,386.154z M718.9,394.323c0.084,0.786-0.463,1.497-1.254,1.592
		c-0.77,0.095-1.488-0.466-1.582-1.253c-0.096-0.782,0.461-1.488,1.242-1.583c0.057-0.01,0.123-0.02,0.17-0.02
		C718.193,393.059,718.814,393.597,718.9,394.323L718.9,394.323z M129.64,393.238c0.78,0.096,1.337,0.812,1.252,1.594
		c-0.094,0.78-0.81,1.343-1.592,1.25c-0.782-0.09-1.348-0.803-1.253-1.594c0.084-0.72,0.697-1.258,1.422-1.258
		C129.526,393.23,129.582,393.23,129.64,393.238L129.64,393.238z M719.681,401.475c0.066,0.793-0.508,1.484-1.289,1.555
		c-0.793,0.08-1.48-0.494-1.557-1.28c-0.084-0.787,0.49-1.49,1.281-1.563c0.037-0.006,0.086-0.006,0.143-0.006
		C718.974,400.181,719.605,400.731,719.681,401.475L719.681,401.475z M128.84,400.35c0.79,0.08,1.355,0.786,1.29,1.56
		c-0.075,0.786-0.772,1.366-1.555,1.29c-0.79-0.07-1.366-0.77-1.29-1.555c0.064-0.744,0.695-1.3,1.422-1.3
		C128.747,400.345,128.802,400.345,128.84,400.35L128.84,400.35z M720.275,408.645c0.066,0.782-0.537,1.47-1.318,1.522
		c-0.789,0.058-1.479-0.542-1.525-1.324c-0.057-0.786,0.527-1.475,1.328-1.526c0.027-0.01,0.061-0.01,0.098-0.01
		C719.597,407.307,720.22,407.882,720.275,408.645L720.275,408.645z M128.208,407.477c0.79,0.065,1.385,0.744,1.328,1.526
		c-0.066,0.79-0.744,1.386-1.526,1.333c-0.792-0.062-1.385-0.744-1.33-1.53c0.06-0.75,0.68-1.33,1.435-1.33L128.208,407.477
		L128.208,407.477z M720.72,415.814c0.037,0.79-0.576,1.45-1.355,1.498c-0.801,0.028-1.471-0.574-1.508-1.353
		c-0.041-0.797,0.572-1.47,1.354-1.504h0.078C720.042,414.457,720.683,415.045,720.72,415.814L720.72,415.814z M127.747,414.628
		c0.782,0.033,1.395,0.707,1.355,1.488c-0.037,0.792-0.707,1.4-1.487,1.366c-0.792-0.037-1.404-0.707-1.366-1.504
		c0.046-0.768,0.668-1.352,1.43-1.352C127.699,414.628,127.726,414.628,127.747,414.628L127.747,414.628z M720.972,423
		c0.021,0.786-0.594,1.445-1.395,1.46c-0.779,0.022-1.439-0.606-1.469-1.39c-0.014-0.793,0.609-1.45,1.4-1.47h0.027
		C720.312,421.602,720.955,422.213,720.972,423L720.972,423L720.972,423z M127.463,421.77c0.782,0.02,1.413,0.67,1.386,1.46
		c-0.02,0.802-0.67,1.412-1.462,1.396c-0.79-0.015-1.413-0.67-1.395-1.45v-0.006c0.02-0.78,0.66-1.404,1.433-1.404
		C127.433,421.766,127.445,421.766,127.463,421.77L127.463,421.77z M721.066,430.183v0.012c0,0.787-0.641,1.424-1.432,1.424
		c-0.801,0-1.432-0.637-1.439-1.424c0-0.795,0.639-1.438,1.439-1.438C720.417,428.761,721.066,429.398,721.066,430.183z
		 M128.764,430.363v0.324c0.01,0.789-0.632,1.422-1.423,1.434c-0.79,0-1.43-0.643-1.43-1.434c0-0.053,0-0.104,0.018-0.154
		c-0.02-0.063-0.02-0.113-0.02-0.17c0-0.787,0.642-1.434,1.433-1.434c0.792-0.004,1.424,0.641,1.424,1.434H128.764z M719.58,435.917
		c0.801,0.014,1.412,0.674,1.402,1.465c-0.02,0.787-0.67,1.414-1.449,1.396c-0.803-0.023-1.426-0.682-1.404-1.469
		c0.02-0.773,0.648-1.395,1.43-1.395h0.021V435.917z M128.857,437.814h0.01c0.02,0.777-0.61,1.434-1.403,1.461
		c-0.782,0.02-1.44-0.604-1.46-1.398c-0.028-0.779,0.594-1.439,1.395-1.469c0.01,0,0.02,0,0.036,0.01
		c0.772,0,1.412,0.611,1.42,1.396H128.857z M719.371,443.068c0.793,0.037,1.404,0.699,1.365,1.492
		c-0.047,0.799-0.707,1.404-1.508,1.367c-0.779-0.039-1.395-0.707-1.355-1.504c0.027-0.77,0.67-1.355,1.434-1.355H719.371
		L719.371,443.068z M129.13,444.929c0.04,0.787-0.574,1.457-1.355,1.494c-0.792,0.043-1.47-0.564-1.497-1.355
		c-0.048-0.781,0.556-1.461,1.355-1.5h0.065C128.453,443.568,129.084,444.162,129.13,444.929L129.13,444.929z M718.974,450.216
		c0.791,0.059,1.387,0.74,1.328,1.525c-0.057,0.793-0.732,1.381-1.516,1.33c-0.803-0.061-1.387-0.744-1.34-1.531
		c0.061-0.76,0.688-1.33,1.424-1.33C718.91,450.21,718.949,450.21,718.974,450.216L718.974,450.216z M129.555,452.035
		c0.066,0.789-0.537,1.469-1.328,1.529c-0.78,0.063-1.47-0.531-1.525-1.322v0.006c-0.058-0.793,0.537-1.477,1.328-1.537
		c0.037,0,0.065-0.004,0.104-0.004c0.742,0,1.366,0.574,1.42,1.33L129.555,452.035z M718.419,457.343
		c0.783,0.08,1.367,0.773,1.301,1.57c-0.084,0.779-0.779,1.359-1.563,1.271c-0.791-0.061-1.365-0.77-1.291-1.549
		c0.076-0.746,0.688-1.301,1.424-1.301C718.335,457.343,718.373,457.343,718.419,457.343L718.419,457.343z M130.16,459.13
		c0.073,0.789-0.5,1.486-1.283,1.563c-0.79,0.08-1.488-0.504-1.563-1.285c-0.085-0.787,0.5-1.484,1.28-1.561
		c0.05-0.01,0.096-0.01,0.144-0.01c0.732,0,1.354,0.553,1.42,1.291L130.16,459.13z M717.693,464.466
		c0.791,0.1,1.338,0.801,1.244,1.592c-0.094,0.787-0.801,1.344-1.584,1.248c-0.789-0.094-1.338-0.807-1.252-1.588
		c0.096-0.725,0.707-1.262,1.412-1.268c0.07,0,0.117,0,0.182,0.014L717.693,464.466z M130.93,466.21
		c0.095,0.779-0.46,1.492-1.252,1.592c-0.782,0.094-1.49-0.467-1.593-1.244c-0.085-0.791,0.47-1.508,1.253-1.602
		c0.057-0.004,0.113-0.01,0.17-0.01C130.223,464.947,130.846,465.488,130.93,466.21L130.93,466.21z M716.791,471.566
		c0.779,0.111,1.33,0.84,1.205,1.619c-0.105,0.781-0.828,1.324-1.609,1.213c-0.779-0.109-1.33-0.842-1.217-1.621
		c0.105-0.711,0.717-1.227,1.402-1.227c0.076,0.002,0.15,0.006,0.221,0.016H716.791z M131.874,473.269
		c0.104,0.779-0.425,1.506-1.216,1.621c-0.772,0.119-1.498-0.428-1.62-1.211c-0.105-0.775,0.433-1.506,1.215-1.625
		c0.066-0.01,0.132-0.014,0.208-0.014C131.159,472.042,131.769,472.56,131.874,473.269L131.874,473.269z M715.724,478.642
		c0.771,0.127,1.301,0.867,1.168,1.646c-0.139,0.781-0.865,1.309-1.656,1.178c-0.771-0.137-1.291-0.871-1.158-1.654
		c0.113-0.699,0.727-1.188,1.4-1.188C715.556,478.623,715.628,478.628,715.724,478.642L715.724,478.642z M132.984,480.296
		c0.133,0.785-0.386,1.525-1.168,1.652c-0.77,0.137-1.517-0.393-1.648-1.17c-0.132-0.777,0.387-1.516,1.17-1.646
		c0.074-0.016,0.16-0.02,0.244-0.02c0.686-0.006,1.28,0.494,1.402,1.182V480.296z M714.48,485.691
		c0.773,0.148,1.279,0.895,1.131,1.676c-0.15,0.775-0.904,1.27-1.678,1.127c-0.779-0.15-1.279-0.9-1.141-1.684
		c0.143-0.68,0.734-1.158,1.414-1.158c0.086,0.006,0.172,0.02,0.273,0.037V485.691L714.48,485.691z M134.275,487.306
		c0.15,0.781-0.357,1.525-1.13,1.684c-0.782,0.146-1.526-0.359-1.678-1.139c-0.15-0.77,0.35-1.52,1.12-1.672
		c0.095-0.02,0.198-0.021,0.274-0.021c0.672-0.002,1.274,0.469,1.415,1.146L134.275,487.306z M713.06,492.701
		c0.77,0.174,1.25,0.932,1.09,1.699c-0.17,0.77-0.93,1.268-1.703,1.094c-0.771-0.174-1.254-0.939-1.084-1.705
		c0.143-0.67,0.727-1.117,1.387-1.121C712.859,492.667,712.955,492.677,713.06,492.701L713.06,492.701z M135.717,494.279
		c0.17,0.775-0.31,1.535-1.083,1.699c-0.772,0.176-1.536-0.313-1.706-1.08c-0.17-0.775,0.312-1.539,1.084-1.709
		c0.104-0.021,0.207-0.031,0.312-0.031C134.982,493.158,135.576,493.615,135.717,494.279L135.717,494.279z M711.474,499.681
		c0.783,0.189,1.244,0.961,1.057,1.727c-0.189,0.77-0.971,1.232-1.732,1.049c-0.77-0.178-1.23-0.959-1.045-1.723
		c0.16-0.654,0.734-1.094,1.385-1.094C711.25,499.64,711.361,499.648,711.474,499.681z M137.347,501.212
		c0.188,0.773-0.282,1.537-1.055,1.725c-0.754,0.189-1.536-0.275-1.726-1.045c-0.188-0.764,0.283-1.541,1.047-1.73
		c0.112-0.021,0.227-0.037,0.35-0.037C136.603,500.125,137.178,500.558,137.347,501.212L137.347,501.212z M709.722,506.621
		c0.756,0.207,1.217,0.99,0.998,1.754c-0.195,0.758-0.977,1.215-1.738,1.008c-0.773-0.207-1.227-0.994-1.021-1.754
		c0.18-0.631,0.766-1.059,1.387-1.059c0.123-0.008,0.256,0.012,0.377,0.049L709.722,506.621z M139.138,508.099
		c0.207,0.771-0.245,1.553-1.01,1.766c-0.762,0.201-1.544-0.246-1.752-1.016c-0.207-0.76,0.236-1.545,1-1.758
		c0.13-0.027,0.254-0.047,0.386-0.047c0.622,0.006,1.206,0.42,1.376,1.057V508.099L139.138,508.099z M707.8,513.513
		c0.754,0.223,1.189,1.027,0.973,1.775c-0.227,0.754-1.035,1.188-1.791,0.965c-0.752-0.229-1.188-1.02-0.959-1.773
		c0.18-0.627,0.754-1.02,1.375-1.02C707.527,513.453,707.669,513.47,707.8,513.513L707.8,513.513z M141.088,514.951
		c0.235,0.754-0.208,1.555-0.952,1.779c-0.754,0.223-1.555-0.207-1.78-0.963c-0.234-0.758,0.197-1.559,0.95-1.773
		c0.144-0.047,0.274-0.066,0.416-0.066C140.334,513.927,140.899,514.333,141.088,514.951L141.088,514.951z M705.71,520.353
		c0.752,0.24,1.17,1.057,0.922,1.801c-0.244,0.76-1.055,1.164-1.809,0.924c-0.756-0.244-1.158-1.045-0.914-1.795
		c0.197-0.607,0.754-0.994,1.354-0.994c0.152-0.002,0.303,0.021,0.443,0.064H705.71L705.71,520.353z M143.217,521.748
		c0.235,0.75-0.17,1.555-0.913,1.801c-0.754,0.24-1.563-0.166-1.8-0.92c-0.255-0.748,0.16-1.555,0.913-1.803
		c0.142-0.047,0.293-0.076,0.443-0.076C142.455,520.753,143.03,521.144,143.217,521.748L143.217,521.748z M703.447,527.179
		c0.744,0.256,1.133,1.074,0.877,1.82c-0.264,0.744-1.084,1.131-1.818,0.865c-0.754-0.262-1.145-1.074-0.875-1.818
		c0.199-0.59,0.756-0.959,1.35-0.959c0.158,0,0.318,0.031,0.471,0.094L703.447,527.179z M145.507,528.486
		c0.264,0.742-0.123,1.559-0.877,1.82c-0.734,0.266-1.563-0.127-1.818-0.865c-0.264-0.742,0.123-1.563,0.867-1.832
		c0.17-0.053,0.33-0.074,0.48-0.074C144.752,527.535,145.289,527.902,145.507,528.486L145.507,528.486z M701.015,533.921
		c0.746,0.287,1.113,1.107,0.842,1.848c-0.283,0.738-1.121,1.109-1.85,0.838c-0.744-0.277-1.109-1.105-0.828-1.854
		c0.219-0.57,0.754-0.918,1.338-0.918C700.677,533.835,700.855,533.869,701.015,533.921L701.015,533.921z M147.957,535.169
		c0.283,0.744-0.084,1.57-0.83,1.848c-0.733,0.283-1.562-0.086-1.846-0.822c-0.272-0.74,0.096-1.564,0.83-1.85
		c0.17-0.061,0.35-0.094,0.51-0.094c0.583,0,1.12,0.354,1.337,0.92L147.957,535.169z M698.435,540.617
		c0.729,0.299,1.074,1.139,0.771,1.869c-0.291,0.734-1.131,1.09-1.865,0.779c-0.727-0.283-1.084-1.129-0.771-1.859
		c0.215-0.557,0.744-0.891,1.318-0.891C698.066,540.515,698.248,540.556,698.435,540.617L698.435,540.617z M150.566,541.804
		c0.292,0.727-0.057,1.561-0.77,1.855c-0.736,0.305-1.575-0.049-1.866-0.779h-0.01c-0.292-0.729,0.057-1.561,0.79-1.865
		c0.17-0.068,0.36-0.104,0.538-0.104c0.564-0.004,1.092,0.326,1.318,0.891V541.804L150.566,541.804z M695.675,547.25
		c0.727,0.32,1.057,1.158,0.744,1.881c-0.33,0.725-1.168,1.055-1.895,0.742c-0.729-0.314-1.059-1.162-0.734-1.883
		c0.229-0.543,0.766-0.869,1.311-0.869c0.189,0,0.387,0.047,0.576,0.127L695.675,547.25z M153.337,548.337
		c0.31,0.727-0.02,1.564-0.735,1.879c-0.726,0.316-1.572-0.014-1.894-0.732c-0.302-0.727,0.02-1.572,0.744-1.887
		c0.18-0.084,0.377-0.117,0.564-0.117C152.563,547.48,153.1,547.796,153.337,548.337L153.337,548.337z M692.763,553.802
		c0.707,0.334,1.02,1.188,0.68,1.896c-0.318,0.719-1.18,1.023-1.895,0.701c-0.717-0.334-1.02-1.186-0.689-1.9
		c0.236-0.516,0.754-0.822,1.301-0.822C692.357,553.671,692.574,553.707,692.763,553.802L692.763,553.802z M156.257,554.806
		c0.33,0.707,0.03,1.564-0.688,1.896c-0.718,0.334-1.574,0.02-1.904-0.693c-0.34-0.717-0.028-1.568,0.688-1.898
		c0.197-0.096,0.404-0.133,0.604-0.133c0.545,0,1.055,0.303,1.3,0.826V554.806z M689.691,560.285c0.707,0.355,1,1.207,0.641,1.912
		c-0.35,0.717-1.205,1.004-1.912,0.65c-0.715-0.35-0.998-1.213-0.646-1.918c0.256-0.5,0.764-0.799,1.287-0.799
		c0.219,0.002,0.414,0.055,0.633,0.152v0.002H689.691z M159.34,561.199c0.347,0.711,0.055,1.563-0.65,1.922
		c-0.708,0.35-1.564,0.057-1.923-0.645c-0.34-0.707-0.057-1.566,0.65-1.922c0.207-0.096,0.423-0.146,0.64-0.146
		C158.585,560.408,159.084,560.695,159.34,561.199L159.34,561.199z M686.46,566.687c0.695,0.373,0.961,1.24,0.604,1.934
		c-0.367,0.707-1.232,0.967-1.941,0.604c-0.686-0.363-0.959-1.23-0.592-1.932c0.244-0.49,0.744-0.768,1.264-0.768
		C686.015,566.521,686.244,566.583,686.46,566.687L686.46,566.687z M162.57,567.525c0.367,0.695,0.095,1.563-0.594,1.932
		c-0.707,0.369-1.572,0.104-1.94-0.594c-0.367-0.701-0.095-1.563,0.604-1.939c0.207-0.113,0.435-0.156,0.66-0.156
		C161.816,566.757,162.315,567.041,162.57,567.525L162.57,567.525z M683.066,573.009c0.697,0.381,0.953,1.254,0.561,1.951
		c-0.391,0.688-1.256,0.932-1.943,0.547c-0.693-0.387-0.934-1.25-0.557-1.939c0.264-0.473,0.754-0.73,1.254-0.73
		c0.236-0.002,0.463,0.049,0.689,0.172H683.066L683.066,573.009z M165.962,573.767c0.387,0.693,0.132,1.564-0.556,1.955
		c-0.688,0.385-1.556,0.139-1.94-0.559c-0.387-0.688-0.142-1.564,0.546-1.941c0.227-0.127,0.452-0.184,0.697-0.184
		C165.207,573.033,165.699,573.292,165.962,573.767L165.962,573.767z M679.544,579.248c0.668,0.4,0.902,1.27,0.498,1.959
		c-0.395,0.684-1.279,0.904-1.959,0.504c-0.668-0.395-0.904-1.275-0.5-1.953c0.264-0.449,0.746-0.703,1.234-0.703
		C679.062,579.054,679.316,579.111,679.544,579.248L679.544,579.248z M169.496,579.935c0.404,0.676,0.18,1.561-0.5,1.955
		c-0.687,0.4-1.563,0.176-1.96-0.51c-0.404-0.674-0.18-1.555,0.5-1.951c0.235-0.129,0.49-0.201,0.726-0.201
		C168.752,579.228,169.242,579.482,169.496,579.935L169.496,579.935z M675.861,585.396c0.666,0.414,0.875,1.297,0.459,1.971
		c-0.402,0.674-1.289,0.875-1.98,0.459c-0.666-0.412-0.854-1.305-0.449-1.967c0.273-0.439,0.744-0.682,1.227-0.682
		C675.361,585.177,675.617,585.248,675.861,585.396L675.861,585.396z M173.188,586.011c0.415,0.67,0.208,1.551-0.46,1.971
		c-0.68,0.414-1.556,0.213-1.97-0.463c-0.416-0.67-0.218-1.549,0.45-1.969c0.237-0.146,0.5-0.217,0.765-0.217
		c0.472-0.004,0.943,0.24,1.215,0.68V586.011L173.188,586.011z M672.025,591.453c0.658,0.43,0.848,1.32,0.424,1.98
		c-0.441,0.658-1.33,0.844-1.99,0.404c-0.656-0.434-0.846-1.313-0.412-1.975c0.271-0.42,0.734-0.645,1.197-0.645
		c0.271,0.004,0.547,0.074,0.779,0.234H672.025z M177.015,591.99c0.435,0.67,0.244,1.555-0.415,1.982
		c-0.65,0.438-1.536,0.244-1.98-0.404c-0.423-0.664-0.234-1.551,0.416-1.988c0.234-0.154,0.518-0.227,0.78-0.227
		C176.28,591.353,176.742,591.572,177.015,591.99L177.015,591.99z M668.05,597.414c0.65,0.447,0.816,1.338,0.355,1.992
		c-0.439,0.645-1.328,0.809-1.986,0.355c-0.65-0.451-0.811-1.338-0.359-1.98c0.283-0.41,0.729-0.617,1.18-0.617
		C667.531,597.164,667.804,597.244,668.05,597.414z M180.99,597.89c0.443,0.645,0.282,1.543-0.366,1.996
		c-0.65,0.443-1.536,0.283-1.988-0.373c-0.452-0.645-0.282-1.535,0.358-1.984c0.254-0.178,0.537-0.25,0.818-0.25
		c0.453-0.008,0.896,0.209,1.18,0.609L180.99,597.89z M663.931,603.273c0.641,0.467,0.781,1.359,0.311,2.002
		c-0.449,0.637-1.354,0.779-1.984,0.307c-0.633-0.457-0.771-1.354-0.313-1.998v0.006c0.273-0.393,0.715-0.59,1.158-0.59
		c0.281,0,0.584,0.09,0.83,0.273H663.931z M185.108,603.687c0.462,0.637,0.32,1.531-0.32,1.998c-0.63,0.467-1.526,0.32-1.997-0.314
		c-0.46-0.629-0.33-1.529,0.32-1.992c0.255-0.188,0.548-0.273,0.85-0.273c0.43,0,0.866,0.201,1.148,0.584L185.108,603.687z
		 M659.673,609.031c0.631,0.479,0.754,1.385,0.271,2.012c-0.48,0.619-1.375,0.744-1.998,0.264c-0.629-0.477-0.754-1.377-0.271-2.008
		c0.281-0.363,0.705-0.561,1.143-0.561c0.297,0,0.6,0.094,0.854,0.291v0.002H659.673z M189.357,609.388
		c0.49,0.633,0.367,1.527-0.255,2.008c-0.63,0.477-1.525,0.357-2.007-0.27c-0.48-0.627-0.367-1.521,0.266-2.006
		c0.265-0.199,0.564-0.297,0.866-0.297C188.651,608.824,189.085,609.021,189.357,609.388z M655.281,614.693
		c0.621,0.492,0.717,1.395,0.227,2.012c-0.498,0.613-1.395,0.701-2.021,0.217c-0.611-0.494-0.707-1.395-0.207-2.006
		c0.283-0.357,0.693-0.543,1.107-0.547C654.697,614.373,655.019,614.482,655.281,614.693L655.281,614.693z M193.757,614.98
		c0.5,0.615,0.396,1.52-0.226,2.012c-0.61,0.5-1.508,0.396-2.007-0.217c-0.49-0.617-0.396-1.518,0.218-2.014
		c0.265-0.217,0.595-0.313,0.904-0.313c0.415,0,0.83,0.188,1.113,0.527L193.757,614.98z M650.767,620.234
		c0.584,0.514,0.672,1.406,0.16,2.012c-0.508,0.611-1.412,0.688-2.016,0.18c-0.613-0.516-0.68-1.41-0.18-2.018
		c0.281-0.334,0.695-0.516,1.092-0.516c0.332,0.006,0.672,0.115,0.941,0.34v0.002H650.767z M198.28,620.474
		c0.52,0.604,0.435,1.502-0.17,2.014c-0.594,0.518-1.497,0.439-2.017-0.166c-0.51-0.604-0.424-1.508,0.18-2.018
		c0.272-0.23,0.594-0.334,0.913-0.334C197.593,619.964,197.998,620.134,198.28,620.474L198.28,620.474z M646.105,625.675
		c0.584,0.527,0.643,1.426,0.121,2.02c-0.525,0.596-1.432,0.643-2.016,0.123c-0.602-0.527-0.65-1.438-0.131-2.02
		c0.289-0.32,0.688-0.486,1.074-0.486C645.494,625.306,645.833,625.435,646.105,625.675L646.105,625.675z M202.945,625.859
		c0.518,0.584,0.46,1.486-0.123,2.016c-0.584,0.521-1.488,0.461-2.008-0.127c-0.526-0.59-0.47-1.488,0.104-2.012
		c0.283-0.25,0.622-0.367,0.952-0.367c0.395,0,0.782,0.17,1.075,0.488V625.859z M641.31,630.994
		c0.582,0.541,0.619,1.439,0.082,2.016c-0.547,0.584-1.449,0.623-2.021,0.08c-0.576-0.531-0.613-1.438-0.076-2.02
		c0.283-0.309,0.66-0.457,1.047-0.457c0.348,0,0.705,0.129,0.969,0.379V630.994L641.31,630.994z M207.73,631.121
		c0.547,0.574,0.51,1.479-0.085,2.02c-0.564,0.537-1.48,0.512-2.016-0.07c-0.538-0.576-0.5-1.484,0.073-2.021
		c0.272-0.264,0.622-0.391,0.98-0.391c0.378,0.004,0.766,0.16,1.047,0.461L207.73,631.121z M636.408,636.201
		c0.561,0.545,0.566,1.453,0.012,2.016c-0.537,0.564-1.449,0.58-2.018,0.023c-0.564-0.555-0.576-1.453-0.027-2.021
		c0.281-0.289,0.658-0.436,1.021-0.436c0.363,0.006,0.723,0.146,1.014,0.416v0.002H636.408z M212.64,636.269
		c0.556,0.57,0.545,1.48-0.02,2.027c-0.565,0.549-1.472,0.539-2.018-0.023c-0.557-0.563-0.557-1.467,0.02-2.025
		c0.272-0.27,0.632-0.4,1-0.4c0.368-0.006,0.734,0.143,1.017,0.424L212.64,636.269z M631.371,641.283
		c0.545,0.563,0.533,1.469-0.021,2.02c-0.574,0.547-1.479,0.537-2.033-0.025c-0.537-0.559-0.527-1.473,0.025-2.025
		c0.283-0.27,0.65-0.404,1-0.404C630.72,640.849,631.097,640.99,631.371,641.283L631.371,641.283z M217.68,641.31
		c0.565,0.553,0.575,1.457,0.028,2.025c-0.546,0.566-1.46,0.58-2.035,0.025c-0.556-0.561-0.564-1.457-0.02-2.031
		c0.282-0.283,0.66-0.42,1.027-0.42C217.05,640.906,217.408,641.033,217.68,641.31L217.68,641.31z M626.214,646.238
		c0.537,0.58,0.5,1.486-0.074,2.02c-0.574,0.549-1.488,0.51-2.025-0.07c-0.535-0.574-0.498-1.477,0.086-2.02
		c0.273-0.26,0.611-0.379,0.961-0.379c0.387-0.002,0.771,0.148,1.055,0.449H626.214L626.214,646.238z M222.844,646.214
		c0.574,0.543,0.604,1.441,0.075,2.025c-0.548,0.586-1.452,0.607-2.026,0.076c-0.584-0.533-0.612-1.441-0.075-2.021
		c0.28-0.307,0.658-0.463,1.045-0.463C222.21,645.832,222.558,645.964,222.844,646.214L222.844,646.214z M620.939,651.076
		c0.525,0.594,0.473,1.494-0.123,2.018c-0.584,0.527-1.486,0.475-2.018-0.127c-0.52-0.584-0.471-1.494,0.123-2.012
		c0.279-0.25,0.609-0.363,0.949-0.363c0.396,0.006,0.783,0.17,1.064,0.486L620.939,651.076z M228.11,651.005
		c0.595,0.523,0.642,1.424,0.123,2.021c-0.527,0.59-1.433,0.645-2.025,0.115c-0.584-0.52-0.642-1.424-0.112-2.012
		c0.272-0.32,0.668-0.486,1.073-0.486C227.507,650.644,227.836,650.765,228.11,651.005L228.11,651.005z M615.556,655.783
		c0.5,0.604,0.436,1.512-0.168,2.016c-0.604,0.508-1.51,0.438-2.02-0.17c-0.51-0.605-0.436-1.502,0.17-2.016
		c0.266-0.229,0.604-0.336,0.926-0.336C614.871,655.273,615.275,655.443,615.556,655.783L615.556,655.783z M233.5,655.675
		c0.603,0.5,0.688,1.402,0.16,2.012c-0.5,0.604-1.396,0.68-2.007,0.17c-0.595-0.51-0.68-1.408-0.17-2.014
		c0.282-0.334,0.687-0.518,1.094-0.518C232.907,655.332,233.227,655.443,233.5,655.675L233.5,655.675z M610.056,660.357
		c0.51,0.615,0.414,1.514-0.217,2.012c-0.611,0.488-1.508,0.398-2.008-0.223c-0.49-0.617-0.395-1.518,0.217-2.014
		c0.256-0.211,0.576-0.313,0.887-0.313c0.42-0.006,0.846,0.18,1.119,0.533L610.056,660.357z M238.994,660.197
		c0.622,0.496,0.716,1.395,0.217,2.018c-0.49,0.617-1.395,0.705-2.006,0.217c-0.612-0.504-0.707-1.395-0.217-2.02
		c0.28-0.352,0.696-0.527,1.12-0.527c0.31-0.006,0.633,0.104,0.887,0.314L238.994,660.197z M604.451,664.804
		c0.49,0.623,0.365,1.52-0.256,1.988v0.006c-0.623,0.48-1.525,0.361-2.008-0.27c-0.48-0.627-0.377-1.521,0.264-2.01
		c0.258-0.188,0.566-0.285,0.869-0.285c0.426,0,0.859,0.197,1.129,0.568h0.002V664.804z M244.608,664.593
		c0.622,0.48,0.735,1.375,0.265,2.006c-0.48,0.627-1.375,0.75-2.007,0.271c-0.63-0.48-0.744-1.381-0.265-2.002
		c0.274-0.373,0.708-0.566,1.143-0.57C244.044,664.3,244.354,664.398,244.608,664.593L244.608,664.593z M598.75,669.099
		c0.461,0.641,0.318,1.537-0.311,2c-0.641,0.471-1.535,0.32-2.008-0.314c-0.463-0.643-0.311-1.529,0.32-1.998
		c0.254-0.174,0.555-0.27,0.838-0.27c0.443-0.01,0.885,0.197,1.16,0.584V669.099L598.75,669.099z M250.32,668.857
		c0.64,0.469,0.78,1.359,0.318,1.994c-0.47,0.643-1.355,0.777-2.007,0.313c-0.62-0.457-0.77-1.354-0.3-1.992
		c0.27-0.391,0.706-0.588,1.158-0.588C249.773,668.583,250.065,668.673,250.32,668.857L250.32,668.857z M592.945,673.259
		c0.451,0.65,0.291,1.547-0.357,1.994c-0.66,0.453-1.545,0.293-1.998-0.363c-0.439-0.646-0.283-1.543,0.367-1.984
		c0.246-0.174,0.527-0.26,0.801-0.26c0.475,0,0.904,0.215,1.189,0.615v-0.002H592.945z M256.14,672.98
		c0.65,0.445,0.813,1.33,0.358,1.984c-0.452,0.65-1.338,0.813-1.988,0.359c-0.648-0.447-0.8-1.334-0.367-1.994
		c0.283-0.393,0.717-0.609,1.18-0.609C255.603,672.72,255.887,672.804,256.14,672.98L256.14,672.98z M587.037,677.285
		c0.434,0.66,0.256,1.549-0.404,1.98c-0.668,0.436-1.555,0.25-1.984-0.414c-0.428-0.656-0.234-1.545,0.41-1.98
		c0.246-0.156,0.521-0.229,0.773-0.229C586.31,676.644,586.765,676.867,587.037,677.285L587.037,677.285z M262.058,676.964
		c0.65,0.436,0.84,1.314,0.396,1.98c-0.424,0.654-1.32,0.842-1.98,0.404c-0.66-0.43-0.838-1.314-0.413-1.979
		c0.283-0.42,0.745-0.646,1.206-0.646C261.532,676.728,261.805,676.808,262.058,676.964L262.058,676.964z M581.044,681.166
		c0.416,0.67,0.217,1.561-0.459,1.965c-0.67,0.42-1.547,0.219-1.973-0.455c-0.424-0.68-0.217-1.561,0.453-1.971
		c0.232-0.15,0.498-0.219,0.764-0.219c0.471,0.008,0.938,0.244,1.215,0.682V681.166z M268.06,680.794
		c0.67,0.424,0.876,1.305,0.452,1.973c-0.405,0.676-1.29,0.885-1.96,0.463c-0.68-0.42-0.876-1.305-0.462-1.971
		c0.273-0.436,0.735-0.672,1.216-0.672C267.561,680.587,267.826,680.652,268.06,680.794z M574.947,684.892
		c0.406,0.686,0.182,1.557-0.498,1.967c-0.689,0.395-1.557,0.166-1.961-0.512c-0.402-0.686-0.178-1.559,0.5-1.959
		c0.234-0.131,0.479-0.203,0.727-0.203C574.205,684.185,574.673,684.447,574.947,684.892L574.947,684.892z M274.157,684.492
		c0.688,0.396,0.914,1.281,0.52,1.955c-0.406,0.688-1.282,0.91-1.96,0.514c-0.69-0.404-0.915-1.285-0.51-1.963
		c0.264-0.447,0.733-0.703,1.233-0.703c0.245,0,0.49,0.066,0.717,0.199V684.492z M568.767,688.478
		c0.389,0.691,0.145,1.564-0.547,1.949c-0.686,0.389-1.553,0.139-1.949-0.555c-0.377-0.693-0.119-1.563,0.561-1.945
		c0.223-0.127,0.459-0.18,0.693-0.18c0.51,0,0.99,0.264,1.244,0.729L568.767,688.478z M280.347,688.035
		c0.688,0.387,0.934,1.258,0.547,1.951c-0.377,0.688-1.254,0.932-1.94,0.549c-0.688-0.379-0.934-1.252-0.547-1.943
		c0.255-0.471,0.744-0.73,1.254-0.73c0.234-0.006,0.47,0.059,0.687,0.178L280.347,688.035z M562.511,691.902
		c0.367,0.713,0.105,1.568-0.594,1.939c-0.697,0.363-1.561,0.094-1.932-0.604c-0.377-0.701-0.096-1.564,0.594-1.939
		c0.207-0.104,0.439-0.16,0.67-0.16C561.767,691.144,562.257,691.421,562.511,691.902L562.511,691.902z M286.623,691.431
		c0.707,0.367,0.97,1.24,0.594,1.939c-0.358,0.697-1.216,0.955-1.932,0.598c-0.697-0.373-0.96-1.23-0.604-1.936
		c0.266-0.486,0.766-0.768,1.282-0.768C286.18,691.267,286.417,691.318,286.623,691.431z M556.179,695.191
		c0.352,0.711,0.059,1.559-0.646,1.918c-0.707,0.35-1.564,0.064-1.912-0.646c-0.35-0.707-0.076-1.561,0.639-1.918
		c0.221-0.09,0.428-0.145,0.645-0.145c0.516,0,1.021,0.285,1.275,0.789V695.191L556.179,695.191z M292.98,694.677
		c0.708,0.352,1,1.211,0.643,1.912c-0.34,0.707-1.205,1-1.902,0.65c-0.716-0.352-1.008-1.209-0.648-1.912
		c0.234-0.518,0.754-0.809,1.28-0.809c0.215,0,0.433,0.053,0.63,0.156h-0.003V694.677z M549.763,698.31
		c0.33,0.717,0.021,1.564-0.695,1.902c-0.717,0.33-1.563,0.029-1.895-0.697c-0.34-0.715-0.029-1.559,0.689-1.893
		c0.193-0.096,0.395-0.137,0.604-0.137C549,697.49,549.517,697.794,549.763,698.31L549.763,698.31z M299.427,697.763
		c0.707,0.33,1.02,1.18,0.688,1.896c-0.33,0.719-1.18,1.021-1.902,0.693c-0.716-0.34-1.026-1.184-0.688-1.9
		c0.235-0.518,0.754-0.826,1.292-0.826c0.204,0.004,0.411,0.041,0.61,0.135V697.763L299.427,697.763z M543.271,701.283
		c0.318,0.719-0.012,1.563-0.734,1.879c-0.717,0.314-1.574-0.01-1.885-0.734c-0.313-0.725,0.01-1.564,0.744-1.885
		c0.18-0.084,0.377-0.127,0.564-0.127C542.509,700.416,543.046,700.746,543.271,701.283L543.271,701.283z M305.928,700.693
		c0.728,0.313,1.058,1.158,0.745,1.881c-0.32,0.719-1.16,1.059-1.885,0.736c-0.718-0.313-1.057-1.156-0.735-1.883
		c0.229-0.537,0.754-0.855,1.312-0.855c0.188-0.004,0.387,0.039,0.563,0.123V700.693z M536.722,704.085
		c0.293,0.734-0.057,1.57-0.789,1.869c-0.729,0.303-1.557-0.055-1.857-0.779c-0.291-0.73,0.049-1.564,0.783-1.871
		c0.17-0.064,0.355-0.1,0.547-0.1C535.96,703.205,536.486,703.535,536.722,704.085L536.722,704.085z M312.505,703.455
		c0.733,0.301,1.083,1.135,0.79,1.865c-0.29,0.736-1.13,1.088-1.854,0.785c-0.733-0.299-1.095-1.133-0.79-1.865
		c0.226-0.557,0.753-0.891,1.328-0.891C312.147,703.353,312.336,703.392,312.505,703.455L312.505,703.455z M530.07,706.748
		c0.273,0.74-0.084,1.563-0.828,1.846s-1.564-0.09-1.848-0.83c-0.27-0.729,0.094-1.561,0.83-1.85c0.16-0.057,0.338-0.08,0.508-0.08
		C529.316,705.83,529.855,706.173,530.07,706.748z M319.157,706.074c0.744,0.275,1.12,1.098,0.828,1.842
		c-0.271,0.744-1.095,1.117-1.827,0.834c-0.744-0.279-1.12-1.107-0.84-1.848c0.22-0.574,0.766-0.924,1.34-0.924
		c0.17,0,0.348,0.033,0.5,0.094L319.157,706.074z M523.373,709.244c0.254,0.74-0.133,1.555-0.877,1.816
		c-0.744,0.271-1.564-0.119-1.828-0.863s0.133-1.564,0.877-1.828l-0.012,0.004c0.172-0.057,0.32-0.08,0.48-0.08
		c0.594-0.004,1.141,0.359,1.359,0.953V709.244L523.373,709.244z M325.875,708.523c0.744,0.26,1.14,1.072,0.877,1.822
		c-0.254,0.744-1.074,1.137-1.818,0.867c-0.754-0.256-1.14-1.074-0.877-1.813c0.198-0.6,0.754-0.957,1.35-0.957
		C325.563,708.437,325.723,708.466,325.875,708.523L325.875,708.523z M516.605,711.57c0.246,0.756-0.168,1.561-0.914,1.807
		c-0.76,0.244-1.561-0.17-1.809-0.92c-0.244-0.748,0.16-1.561,0.914-1.795c0.15-0.057,0.303-0.084,0.443-0.084
		c0.604,0,1.168,0.389,1.363,0.994v-0.002H516.605z M332.65,710.8c0.741,0.244,1.167,1.057,0.913,1.799
		c-0.245,0.76-1.049,1.174-1.802,0.93c-0.745-0.24-1.16-1.053-0.914-1.807c0.197-0.598,0.753-0.982,1.355-0.988
		c0.143-0.002,0.294,0.023,0.444,0.064L332.65,710.8z M509.775,713.738c0.236,0.754-0.197,1.551-0.959,1.775
		c-0.756,0.229-1.557-0.203-1.781-0.961c-0.23-0.754,0.205-1.551,0.961-1.775c0.141-0.049,0.271-0.063,0.404-0.063
		C509.019,712.714,509.597,713.115,509.775,713.738z M339.442,712.914c0.765,0.227,1.195,1.02,0.96,1.777
		c-0.218,0.758-1.009,1.189-1.771,0.965c-0.754-0.223-1.188-1.021-0.96-1.775c0.18-0.627,0.743-1.02,1.365-1.02
		C339.169,712.853,339.31,712.873,339.442,712.914z M502.917,715.736c0.195,0.764-0.246,1.549-1.01,1.752
		c-0.766,0.209-1.557-0.234-1.764-1.002c-0.205-0.762,0.256-1.549,1.01-1.762c0.133-0.033,0.256-0.045,0.387-0.045
		c0.625,0.006,1.197,0.42,1.379,1.055L502.917,715.736z M346.302,714.853c0.754,0.211,1.206,0.994,1.008,1.766
		c-0.207,0.762-0.998,1.209-1.762,1v0.002c-0.764-0.205-1.206-0.988-1.008-1.756c0.18-0.637,0.754-1.049,1.385-1.049
		c0.123,0,0.254,0.008,0.377,0.039V714.853L346.302,714.853z M495.99,717.562c0.189,0.771-0.27,1.541-1.045,1.727
		c-0.764,0.197-1.535-0.273-1.732-1.041c-0.182-0.77,0.291-1.545,1.045-1.73c0.133-0.023,0.236-0.041,0.354-0.041
		C495.236,716.476,495.832,716.914,495.99,717.562z M353.19,716.636c0.77,0.188,1.24,0.959,1.056,1.727
		c-0.19,0.768-0.962,1.232-1.734,1.049c-0.763-0.186-1.232-0.959-1.046-1.729c0.15-0.648,0.745-1.09,1.386-1.09
		C352.962,716.599,353.076,716.613,353.19,716.636L353.19,716.636z M489.041,719.23c0.166,0.771-0.32,1.529-1.105,1.699
		c-0.764,0.178-1.523-0.313-1.695-1.078c-0.17-0.775,0.318-1.545,1.084-1.709c0.104-0.021,0.221-0.039,0.313-0.039
		C488.296,718.103,488.888,718.558,489.041,719.23L489.041,719.23z M360.134,718.248c0.765,0.17,1.253,0.928,1.093,1.699
		c-0.18,0.775-0.94,1.264-1.706,1.098c-0.77-0.17-1.252-0.938-1.092-1.705c0.15-0.664,0.735-1.125,1.396-1.125
		C359.918,718.214,360.031,718.224,360.134,718.248L360.134,718.248z M482.037,720.724c0.16,0.783-0.357,1.523-1.129,1.682
		c-0.783,0.146-1.537-0.355-1.682-1.133c-0.146-0.771,0.352-1.529,1.133-1.684c0.084-0.014,0.188-0.021,0.271-0.021
		C481.3,719.564,481.894,720.037,482.037,720.724L482.037,720.724z M367.106,719.687v-0.006c0.778,0.15,1.278,0.906,1.13,1.68
		c-0.15,0.771-0.896,1.279-1.679,1.135c-0.765-0.16-1.28-0.9-1.132-1.676c0.132-0.688,0.728-1.156,1.404-1.156
		c0.095-0.004,0.18,0,0.272,0.023H367.106z M475.009,722.044c0.121,0.777-0.395,1.508-1.17,1.648
		c-0.779,0.133-1.523-0.395-1.658-1.164c-0.129-0.783,0.389-1.521,1.168-1.654c0.086-0.01,0.16-0.021,0.246-0.021
		c0.678-0.004,1.301,0.49,1.414,1.189V722.044z M374.106,720.951c0.78,0.133,1.31,0.871,1.178,1.645
		c-0.132,0.781-0.866,1.314-1.647,1.18c-0.782-0.133-1.312-0.869-1.17-1.646c0.114-0.703,0.717-1.201,1.405-1.197
		C373.957,720.927,374.032,720.933,374.106,720.951L374.106,720.951z M467.951,723.187c0.111,0.777-0.434,1.514-1.217,1.621
		c-0.779,0.121-1.508-0.424-1.619-1.199c-0.123-0.783,0.414-1.512,1.205-1.627c0.066-0.006,0.143-0.01,0.197-0.01
		C467.224,721.974,467.837,722.482,467.951,723.187L467.951,723.187z M381.144,722.054c0.792,0.107,1.33,0.838,1.206,1.619
		c-0.104,0.777-0.829,1.324-1.608,1.207c-0.78-0.104-1.328-0.83-1.206-1.615c0.095-0.713,0.706-1.227,1.413-1.227
		c0.064,0,0.133,0.004,0.195,0.014V722.054z M460.855,724.169c0.094,0.787-0.471,1.492-1.254,1.59
		c-0.779,0.098-1.496-0.459-1.59-1.246c-0.096-0.775,0.461-1.492,1.252-1.594c0.059-0.004,0.113-0.01,0.18-0.01
		c0.707,0,1.33,0.539,1.414,1.26H460.855L460.855,724.169z M388.212,722.98c0.78,0.096,1.338,0.807,1.253,1.584
		c-0.095,0.791-0.812,1.354-1.604,1.254c-0.78-0.084-1.348-0.803-1.242-1.584c0.086-0.73,0.706-1.264,1.413-1.264
		c0.066,0.002,0.115,0.002,0.182,0.01H388.212L388.212,722.98z M453.742,724.974c0.074,0.791-0.498,1.484-1.289,1.568
		c-0.783,0.07-1.49-0.504-1.557-1.289c-0.076-0.787,0.5-1.484,1.279-1.561c0.059-0.008,0.096-0.008,0.143-0.008
		C453.054,723.687,453.677,724.244,453.742,724.974L453.742,724.974z M395.297,723.74c0.782,0.07,1.355,0.77,1.28,1.561
		c-0.074,0.785-0.763,1.369-1.555,1.295c-0.79-0.08-1.366-0.787-1.302-1.564c0.084-0.74,0.707-1.287,1.434-1.287
		C395.194,723.736,395.25,723.736,395.297,723.74L395.297,723.74z M446.621,725.615c0.055,0.787-0.539,1.475-1.33,1.525
		c-0.791,0.059-1.471-0.537-1.525-1.328c-0.057-0.781,0.527-1.461,1.318-1.525c0.037,0,0.074-0.004,0.105-0.004
		c0.742,0.01,1.365,0.584,1.43,1.332H446.621L446.621,725.615z M402.39,724.333c0.783,0.047,1.377,0.734,1.32,1.52
		c-0.058,0.787-0.735,1.383-1.526,1.324c-0.78-0.053-1.376-0.744-1.326-1.531c0.063-0.754,0.688-1.322,1.433-1.322
		C402.325,724.324,402.353,724.33,402.39,724.333L402.39,724.333z M439.476,726.08c0.037,0.789-0.572,1.457-1.354,1.504
		c-0.791,0.029-1.48-0.58-1.498-1.365c-0.037-0.787,0.564-1.461,1.348-1.494c0.037-0.004,0.047-0.004,0.074-0.004
		C438.798,724.72,439.439,725.318,439.476,726.08L439.476,726.08z M409.497,724.744c0.8,0.033,1.402,0.701,1.365,1.494
		c-0.047,0.779-0.707,1.395-1.498,1.363c-0.78-0.029-1.396-0.705-1.356-1.496c0.03-0.764,0.66-1.359,1.424-1.359h0.065V724.744
		L409.497,724.744z M432.326,726.378c0.02,0.787-0.604,1.438-1.404,1.459c-0.779,0.025-1.438-0.602-1.459-1.393
		c-0.02-0.799,0.605-1.447,1.396-1.473h0.025C431.666,724.98,432.298,725.597,432.326,726.378L432.326,726.378z M416.61,724.994
		c0.79,0.02,1.422,0.674,1.395,1.459c-0.02,0.793-0.67,1.414-1.46,1.398c-0.79-0.018-1.413-0.674-1.396-1.465
		c0.02-0.781,0.648-1.396,1.432-1.396C416.591,724.994,416.609,724.994,416.61,724.994L416.61,724.994z M425.176,726.5
		c0,0.793-0.66,1.43-1.434,1.434c-0.79,0-1.434-0.641-1.434-1.432c-0.01-0.787,0.642-1.428,1.424-1.428s1.442,0.641,1.442,1.428
		L425.176,726.5L425.176,726.5z"/>
</g>
</svg>
