<?xml version="1.0" encoding="utf-8"?>
<!-- Generator: Adobe Illustrator 15.1.0, SVG Export Plug-In . SVG Version: 6.00 Build 0)  -->
<!DOCTYPE svg PUBLIC "-//W3C//DTD SVG 1.1//EN" "http://www.w3.org/Graphics/SVG/1.1/DTD/svg11.dtd">
<svg version="1.1" id="Layer_1" xmlns="http://www.w3.org/2000/svg" xmlns:xlink="http://www.w3.org/1999/xlink" x="0px" y="0px"
	 width="850.39px" height="850.39px" viewBox="0 0 850.39 850.39" enable-background="new 0 0 850.39 850.39" xml:space="preserve">
<path opacity="0.6" fill="#231F20" enable-background="new    " d="M652.132,307.7l-1.281,0.81l-4.617-0.217
	c-0.057-0.005-0.18-0.01-0.355-0.023c-0.188-0.015-0.313-0.02-0.377-0.02h-0.33c-0.16-0.004-0.281,0-0.355,0.01
	c-0.096,0.01-0.197,0.033-0.35,0.057c-0.143,0.024-0.266,0.052-0.355,0.09c-0.105,0.033-0.221,0.08-0.354,0.137
	c-0.121,0.057-0.254,0.127-0.387,0.207c-0.35,0.228-0.604,0.5-0.744,0.82c-0.15,0.33-0.111,0.64,0.076,0.957
	c0.123,0.184,0.266,0.307,0.443,0.38c0.16,0.077,0.355,0.09,0.557,0.058c0.207-0.027,0.404-0.09,0.604-0.17
	c0.197-0.084,0.402-0.187,0.609-0.33l0.32-0.197l0.813,1.282l-0.32,0.207c-0.838,0.527-1.604,0.754-2.301,0.692
	c-0.693-0.07-1.277-0.486-1.77-1.264c-0.459-0.72-0.609-1.408-0.451-2.06c0.18-0.63,0.633-1.195,1.365-1.657
	c0.273-0.176,0.557-0.313,0.82-0.425c0.27-0.104,0.547-0.17,0.828-0.198c0.293-0.037,0.527-0.057,0.734-0.057
	c0.197-0.004,0.461,0,0.781,0.02l4.307,0.42l-2.033-3.205l1.289-0.814l2.836,4.49H652.132L652.132,307.7z M648.919,302.626
	l-1.273,0.82l-0.811-1.292l1.281-0.812l0.801,1.282L648.919,302.626L648.919,302.626z M646.232,298.169
	c0.188,0.3,0.311,0.61,0.367,0.932c0.057,0.315,0.047,0.612-0.029,0.905c-0.074,0.282-0.188,0.564-0.375,0.843
	c-0.17,0.278-0.389,0.532-0.643,0.777c-0.266,0.235-0.547,0.462-0.887,0.66l-2.883,1.827c-0.367,0.236-0.707,0.43-1.059,0.584
	c-0.34,0.156-0.693,0.27-1.033,0.34c-0.352,0.075-0.689,0.094-0.988,0.047c-0.313-0.038-0.605-0.15-0.877-0.34
	c-0.291-0.184-0.535-0.447-0.754-0.78c-0.461-0.727-0.605-1.41-0.436-2.056c0.16-0.646,0.611-1.206,1.35-1.668l0.813,1.28
	c-0.436,0.265-0.697,0.538-0.83,0.812c-0.123,0.277-0.076,0.598,0.15,0.96c0.414,0.642,1.252,0.552,2.535-0.254l1.277-0.814
	c-0.584,0.023-1.055-0.27-1.447-0.872c-0.23-0.362-0.357-0.71-0.396-1.046c-0.037-0.334,0.01-0.64,0.17-0.94
	c0.143-0.294,0.35-0.567,0.611-0.812c0.254-0.255,0.574-0.504,0.961-0.75c0.424-0.268,0.828-0.466,1.234-0.603
	c0.395-0.137,0.787-0.207,1.178-0.212c0.395,0,0.752,0.095,1.094,0.293C645.687,297.48,645.978,297.772,646.232,298.169
	L646.232,298.169z M645.337,299.389c0.008-0.184-0.049-0.373-0.16-0.557c-0.123-0.184-0.256-0.31-0.436-0.38
	c-0.18-0.077-0.367-0.096-0.564-0.063c-0.197,0.033-0.404,0.09-0.604,0.174c-0.195,0.08-0.396,0.188-0.609,0.32
	c-0.123,0.08-0.219,0.142-0.283,0.18c-0.066,0.047-0.16,0.108-0.273,0.184c-0.121,0.085-0.207,0.146-0.264,0.202
	c-0.066,0.047-0.143,0.108-0.234,0.188c-0.084,0.075-0.15,0.146-0.197,0.208c-0.037,0.05-0.084,0.122-0.133,0.207
	c-0.045,0.084-0.084,0.16-0.102,0.235c-0.012,0.07-0.012,0.15-0.012,0.23c0,0.09,0.012,0.175,0.049,0.27
	c0.025,0.094,0.084,0.183,0.141,0.277c0.256,0.41,0.68,0.6,1.254,0.552l1.27-0.81c0.221-0.134,0.406-0.274,0.561-0.416
	c0.16-0.14,0.301-0.3,0.414-0.47c0.109-0.168,0.176-0.347,0.188-0.53L645.337,299.389z M671.228,349.095l-1.404,0.6l-4.531-0.972
	c-0.047-0.014-0.16-0.038-0.34-0.08c-0.18-0.038-0.301-0.07-0.367-0.075c-0.064-0.016-0.17-0.04-0.32-0.063
	c-0.17-0.023-0.291-0.043-0.363-0.043c-0.084,0-0.189-0.01-0.344-0.01c-0.146,0-0.27,0.02-0.375,0.034
	c-0.109,0.02-0.227,0.052-0.365,0.085c-0.143,0.037-0.273,0.08-0.404,0.137c-0.387,0.164-0.678,0.396-0.877,0.697
	c-0.189,0.29-0.229,0.603-0.074,0.94c0.086,0.204,0.207,0.35,0.367,0.458c0.15,0.1,0.34,0.146,0.547,0.146s0.406-0.022,0.613-0.075
	c0.217-0.047,0.434-0.122,0.67-0.216l0.338-0.152l0.594,1.404l-0.35,0.146c-0.914,0.386-1.717,0.49-2.385,0.31
	c-0.67-0.183-1.189-0.688-1.545-1.53c-0.33-0.79-0.379-1.498-0.096-2.102c0.268-0.603,0.803-1.074,1.609-1.422
	c0.293-0.133,0.584-0.227,0.877-0.273c0.271-0.065,0.564-0.09,0.85-0.075c0.291,0.02,0.537,0.038,0.729,0.066
	c0.207,0.03,0.451,0.086,0.777,0.147l4.178,1.106l-1.48-3.485l1.396-0.594l2.08,4.892L671.228,349.095z M668.873,343.573
	l-1.395,0.59l-0.596-1.396l1.402-0.594L668.873,343.573L668.873,343.573z M667.044,338.983c0.367,0.858,0.387,1.594,0.047,2.188
	c-0.33,0.6-0.959,1.093-1.883,1.488c-0.613,0.255-1.133,0.382-1.574,0.372c-0.441-0.014-0.855-0.155-1.254-0.42
	c-0.104,0.406-0.291,0.764-0.584,1.057c-0.273,0.3-0.68,0.555-1.197,0.776c-0.809,0.344-1.508,0.42-2.119,0.22
	c-0.611-0.196-1.084-0.677-1.404-1.45c-0.32-0.763-0.34-1.427-0.064-2.002c0.291-0.57,0.818-1.03,1.629-1.37
	c0.537-0.218,0.99-0.325,1.396-0.325c0.414,0,0.813,0.106,1.18,0.314c0.074-0.467,0.266-0.867,0.574-1.188
	c0.293-0.33,0.734-0.617,1.338-0.866c0.938-0.396,1.729-0.505,2.396-0.335C666.179,337.622,666.687,338.125,667.044,338.983
	L667.044,338.983z M661.156,341.491c-0.076-0.184-0.189-0.32-0.311-0.405c-0.145-0.085-0.303-0.123-0.49-0.113
	c-0.189,0.01-0.357,0.038-0.52,0.085c-0.18,0.046-0.367,0.112-0.584,0.206c-0.934,0.4-1.27,0.886-1.027,1.47
	c0.244,0.585,0.84,0.688,1.771,0.283c0.217-0.095,0.404-0.18,0.547-0.265c0.16-0.095,0.301-0.198,0.434-0.33
	c0.121-0.123,0.207-0.264,0.244-0.424c0.031-0.15,0.002-0.324-0.064-0.508V341.491L661.156,341.491z M666.009,339.983
	c0.01-0.155-0.027-0.33-0.104-0.514c-0.084-0.174-0.182-0.315-0.303-0.42c-0.121-0.107-0.244-0.173-0.379-0.206
	c-0.131-0.028-0.279-0.028-0.459-0.005c-0.18,0.022-0.352,0.07-0.5,0.117c-0.148,0.056-0.34,0.13-0.549,0.217
	c-0.232,0.094-0.434,0.197-0.604,0.3c-0.17,0.114-0.33,0.236-0.461,0.388c-0.133,0.137-0.217,0.297-0.254,0.48
	c-0.029,0.18,0,0.377,0.084,0.58c0.094,0.21,0.217,0.367,0.367,0.47c0.143,0.108,0.32,0.16,0.525,0.16
	c0.188,0.005,0.389-0.014,0.584-0.065c0.188-0.052,0.416-0.127,0.643-0.222c0.217-0.094,0.396-0.174,0.537-0.245
	c0.143-0.084,0.293-0.17,0.436-0.282c0.148-0.113,0.254-0.226,0.318-0.344C665.951,340.274,665.998,340.142,666.009,339.983
	L666.009,339.983z M683,389.206l-2.656,0.65l0.717,2.948l-1.641,0.39l-6.66-1.115l-0.436-1.848l6.275-1.518l-0.273-1.14l1.387-0.34
	l0.283,1.14l2.646-0.64L683,389.206L683,389.206z M679.316,391.666l-0.367-1.47l-4.42,1.062L679.316,391.666L679.316,391.666z
	 M686.58,435.859c0.066,0.938-0.15,1.629-0.648,2.061c-0.51,0.453-1.27,0.703-2.299,0.783l-0.104-1.521l0.234-0.016
	c0.199-0.01,0.367-0.033,0.52-0.061c0.15-0.021,0.293-0.063,0.441-0.109c0.15-0.059,0.283-0.123,0.369-0.203
	c0.104-0.074,0.17-0.184,0.217-0.311c0.057-0.129,0.086-0.283,0.064-0.457c-0.01-0.146-0.027-0.266-0.074-0.371
	c-0.037-0.109-0.086-0.207-0.143-0.279c-0.064-0.08-0.131-0.146-0.229-0.197c-0.096-0.063-0.207-0.105-0.279-0.141
	c-0.086-0.039-0.189-0.066-0.344-0.08c-0.141-0.02-0.264-0.027-0.354-0.039c-0.094-0.008-0.234-0.008-0.414,0l-0.416,0.016
	c-0.084,0.006-0.234,0.012-0.424,0.031c-0.094,0.006-0.15,0.006-0.197,0.018c-0.17,0.012-0.313,0.02-0.434,0.031
	c-0.123,0.021-0.246,0.033-0.396,0.064c-0.133,0.033-0.244,0.063-0.34,0.104c-0.094,0.027-0.189,0.084-0.271,0.146
	c-0.094,0.057-0.158,0.127-0.207,0.223c-0.047,0.08-0.096,0.18-0.123,0.303c-0.02,0.111-0.027,0.25-0.02,0.393
	c0.02,0.27,0.123,0.494,0.311,0.682c0.189,0.184,0.406,0.314,0.65,0.391l0.084,1.291l-5.709,0.395l-0.33-4.674l1.518-0.113
	l0.229,3.316l2.58-0.09c-0.281-0.404-0.439-0.904-0.488-1.488c-0.02-0.34,0.014-0.646,0.098-0.91c0.094-0.277,0.207-0.5,0.377-0.686
	c0.17-0.176,0.387-0.334,0.66-0.457c0.242-0.135,0.523-0.229,0.826-0.299c0.295-0.068,0.621-0.105,0.99-0.139
	c0.449-0.023,0.865-0.041,1.232-0.016c0.367,0.02,0.734,0.08,1.072,0.18c0.352,0.1,0.641,0.244,0.887,0.424
	c0.236,0.164,0.451,0.42,0.604,0.727c0.16,0.303,0.246,0.664,0.283,1.084L686.58,435.859z M686.23,432.443l-1.516,0.111
	l-0.104-1.512l1.506-0.113l0.115,1.514H686.23z M685.97,427.238c0.025,0.359-0.012,0.695-0.113,0.998
	c-0.105,0.311-0.256,0.563-0.453,0.785c-0.197,0.211-0.441,0.404-0.727,0.564c-0.291,0.166-0.611,0.287-0.939,0.373
	c-0.34,0.084-0.697,0.145-1.096,0.174l-3.398,0.25c-0.436,0.023-0.84,0.023-1.217,0.004c-0.367-0.033-0.725-0.094-1.064-0.193
	c-0.354-0.098-0.639-0.24-0.902-0.424c-0.242-0.178-0.449-0.418-0.609-0.721c-0.16-0.297-0.256-0.639-0.283-1.045
	c-0.057-0.854,0.133-1.52,0.584-2.018c0.453-0.485,1.111-0.765,1.979-0.821l0.105,1.508c-0.49,0.037-0.867,0.146-1.111,0.32
	c-0.234,0.188-0.34,0.498-0.311,0.922c0.057,0.754,0.83,1.084,2.346,0.971l1.52-0.104c-0.529-0.26-0.811-0.75-0.867-1.461
	c-0.029-0.424,0.02-0.797,0.148-1.105c0.123-0.313,0.313-0.561,0.586-0.75c0.273-0.188,0.574-0.33,0.924-0.434
	c0.357-0.104,0.754-0.17,1.195-0.197c0.5-0.038,0.971-0.02,1.377,0.05c0.426,0.07,0.801,0.198,1.148,0.383
	c0.34,0.182,0.613,0.436,0.82,0.766c0.199,0.34,0.322,0.736,0.359,1.199V427.238L685.97,427.238z M684.603,427.894
	c0.096-0.16,0.133-0.354,0.113-0.566c0-0.229-0.074-0.4-0.188-0.547c-0.115-0.146-0.271-0.25-0.471-0.32
	c-0.199-0.063-0.396-0.107-0.613-0.121c-0.217-0.033-0.439-0.033-0.697-0.014c-0.139,0.014-0.254,0.021-0.34,0.027
	c-0.074,0.004-0.178,0.014-0.318,0.031c-0.143,0.01-0.264,0.029-0.33,0.049c-0.084,0.01-0.17,0.035-0.303,0.057
	c-0.094,0.027-0.189,0.059-0.254,0.09c-0.064,0.039-0.145,0.08-0.229,0.119c-0.094,0.057-0.143,0.104-0.195,0.164
	c-0.037,0.057-0.084,0.123-0.123,0.199c-0.037,0.072-0.064,0.152-0.084,0.258c-0.012,0.084-0.012,0.186-0.012,0.305
	c0.035,0.496,0.313,0.85,0.84,1.08l1.518-0.109c0.254-0.014,0.48-0.047,0.688-0.098c0.197-0.053,0.396-0.127,0.584-0.223
	c0.178-0.09,0.311-0.221,0.414-0.379V427.894L684.603,427.894z M681.853,479.468c-0.256,0.91-0.688,1.488-1.313,1.754
	c-0.639,0.271-1.439,0.271-2.42,0.01c-0.623-0.176-1.121-0.4-1.459-0.676c-0.34-0.285-0.586-0.652-0.73-1.104
	c-0.34,0.26-0.705,0.424-1.104,0.475c-0.414,0.061-0.885,0.023-1.432-0.127c-0.85-0.227-1.451-0.605-1.801-1.141
	c-0.357-0.523-0.424-1.191-0.217-2.002c0.217-0.805,0.611-1.334,1.188-1.617c0.584-0.273,1.291-0.301,2.131-0.07
	c0.545,0.146,0.979,0.346,1.309,0.588c0.32,0.266,0.549,0.584,0.717,0.979c0.357-0.314,0.744-0.506,1.182-0.58
	c0.434-0.066,0.979-0.031,1.602,0.145c0.98,0.268,1.668,0.672,2.084,1.223C682.003,477.857,682.089,478.583,681.853,479.468
	L681.853,479.468L681.853,479.468z M675.662,477.81c0.047-0.191,0.047-0.365-0.01-0.52c-0.047-0.15-0.15-0.275-0.303-0.379
	c-0.15-0.109-0.301-0.193-0.461-0.26c-0.158-0.066-0.359-0.123-0.584-0.189c-0.99-0.264-1.545-0.094-1.715,0.523
	c-0.17,0.604,0.244,1.051,1.205,1.314c0.236,0.064,0.443,0.111,0.613,0.123c0.18,0.023,0.354,0.029,0.537,0.018
	c0.18-0.021,0.33-0.084,0.449-0.188C675.521,478.15,675.607,478.003,675.662,477.81L675.662,477.81z M680.412,479.615
	c0.102-0.117,0.18-0.273,0.225-0.461c0.061-0.193,0.066-0.363,0.047-0.521c-0.045-0.16-0.092-0.281-0.178-0.389
	c-0.086-0.105-0.207-0.209-0.367-0.289c-0.146-0.094-0.311-0.17-0.461-0.217c-0.148-0.055-0.34-0.109-0.563-0.17
	c-0.246-0.066-0.463-0.117-0.67-0.127c-0.197-0.029-0.404-0.023-0.596,0c-0.195,0.031-0.355,0.115-0.488,0.229
	c-0.143,0.127-0.244,0.301-0.291,0.523c-0.061,0.201-0.066,0.398-0.014,0.584c0.061,0.18,0.16,0.318,0.314,0.451
	c0.148,0.121,0.32,0.227,0.51,0.307c0.188,0.09,0.396,0.16,0.65,0.227c0.217,0.061,0.414,0.107,0.563,0.127
	c0.158,0.033,0.338,0.061,0.525,0.061c0.18,0,0.32-0.029,0.451-0.076c0.123-0.049,0.238-0.135,0.34-0.256h0.002V479.615z
	 M670.658,522.039l-8.064-2.107l-0.289,1.105l-1.096-0.287c-0.074-0.807-0.32-1.387-0.725-1.748l0.289-1.105l10.27,2.674
	L670.658,522.039L670.658,522.039z M671.619,518.369l-8.074-2.1l-0.281,1.1l-1.104-0.287c-0.064-0.807-0.313-1.391-0.715-1.758
	l0.291-1.104l10.26,2.678l-0.375,1.469L671.619,518.369z M651.769,563.017l-7.313-4.029l-0.547,1l-0.998-0.543
	c0.129-0.803,0.037-1.43-0.266-1.885l0.557-0.994l9.289,5.137l-0.727,1.316L651.769,563.017z M654.558,558.171
	c-0.17,0.324-0.391,0.58-0.645,0.787c-0.252,0.197-0.506,0.334-0.811,0.41c-0.271,0.074-0.584,0.104-0.912,0.08
	c-0.33-0.025-0.65-0.09-0.99-0.199c-0.34-0.113-0.668-0.264-0.998-0.447l-2.996-1.646c-0.387-0.219-0.717-0.432-1.025-0.654
	c-0.293-0.223-0.559-0.473-0.793-0.746c-0.234-0.27-0.404-0.555-0.52-0.838c-0.121-0.291-0.15-0.604-0.131-0.941
	c0.025-0.336,0.146-0.68,0.34-1.027c0.404-0.74,0.938-1.197,1.582-1.371c0.643-0.166,1.348-0.039,2.109,0.385l-0.734,1.324
	c-0.436-0.234-0.813-0.357-1.109-0.334c-0.293,0.02-0.559,0.221-0.756,0.6c-0.365,0.662,0.105,1.359,1.434,2.09l1.33,0.73
	c-0.305-0.494-0.273-1.057,0.074-1.689c0.205-0.371,0.439-0.658,0.715-0.854c0.273-0.189,0.576-0.299,0.914-0.305
	c0.33-0.012,0.658,0.037,1.012,0.145c0.338,0.094,0.715,0.264,1.109,0.484c0.434,0.234,0.811,0.504,1.129,0.785
	c0.313,0.295,0.564,0.605,0.746,0.939c0.188,0.34,0.279,0.697,0.27,1.1c-0.006,0.387-0.129,0.791-0.346,1.193H654.558
	L654.558,558.171z M653.066,557.988c0.16-0.09,0.293-0.219,0.404-0.416c0.105-0.193,0.15-0.377,0.123-0.566
	c-0.02-0.184-0.096-0.354-0.217-0.52c-0.123-0.16-0.283-0.314-0.434-0.439c-0.17-0.137-0.371-0.26-0.586-0.381
	c-0.145-0.072-0.234-0.127-0.305-0.17c-0.063-0.037-0.17-0.08-0.291-0.146c-0.123-0.064-0.227-0.105-0.291-0.145
	c-0.076-0.023-0.18-0.063-0.271-0.094c-0.123-0.055-0.217-0.07-0.291-0.076c-0.066-0.01-0.15-0.014-0.246-0.021
	c-0.105-0.006-0.18,0-0.244,0.023c-0.076,0.02-0.143,0.066-0.219,0.094c-0.084,0.043-0.15,0.105-0.217,0.18
	c-0.064,0.07-0.111,0.146-0.172,0.25c-0.232,0.432-0.195,0.885,0.113,1.359l1.34,0.73c0.217,0.129,0.426,0.223,0.619,0.289
	c0.207,0.074,0.406,0.121,0.611,0.137c0.213,0.023,0.393-0.006,0.57-0.09v0.002H653.066z M621.662,598.992l-1.18-0.957l-1.252-4.469
	c-0.01-0.045-0.037-0.156-0.084-0.336c-0.049-0.186-0.076-0.305-0.105-0.357c-0.02-0.066-0.047-0.166-0.104-0.326
	c-0.049-0.145-0.096-0.264-0.123-0.334c-0.037-0.086-0.096-0.174-0.16-0.307c-0.064-0.123-0.131-0.24-0.197-0.32
	c-0.064-0.08-0.15-0.17-0.244-0.283c-0.086-0.1-0.197-0.203-0.311-0.297c-0.33-0.266-0.67-0.426-1.02-0.449
	c-0.35-0.043-0.641,0.08-0.875,0.373c-0.143,0.164-0.217,0.348-0.229,0.521c-0.021,0.203,0.02,0.373,0.111,0.557
	c0.105,0.188,0.219,0.357,0.355,0.523c0.143,0.16,0.313,0.318,0.5,0.471l0.293,0.244l-0.963,1.17l-0.291-0.24
	c-0.773-0.621-1.234-1.277-1.385-1.955c-0.15-0.682,0.064-1.369,0.629-2.082c0.559-0.664,1.16-1.02,1.811-1.064
	c0.68-0.049,1.352,0.211,2.02,0.768c0.256,0.207,0.463,0.424,0.658,0.646c0.17,0.225,0.342,0.459,0.441,0.727
	c0.133,0.26,0.229,0.48,0.293,0.674c0.064,0.186,0.143,0.436,0.227,0.75l0.971,4.211l2.402-2.93l1.168,0.957l-3.357,4.113V598.992
	L621.662,598.992z M625.488,594.314l-1.178-0.963l-1.244-4.455c-0.021-0.059-0.059-0.166-0.086-0.346
	c-0.057-0.176-0.094-0.297-0.104-0.357c-0.02-0.063-0.059-0.17-0.104-0.32c-0.051-0.154-0.105-0.264-0.135-0.344
	c-0.037-0.07-0.086-0.164-0.148-0.297c-0.064-0.133-0.133-0.234-0.207-0.32c-0.064-0.09-0.15-0.188-0.246-0.281
	c-0.094-0.105-0.189-0.213-0.313-0.297c-0.326-0.27-0.67-0.426-1.02-0.457c-0.35-0.035-0.639,0.088-0.875,0.379
	c-0.143,0.16-0.211,0.342-0.229,0.529c-0.02,0.18,0.027,0.367,0.133,0.547c0.084,0.188,0.197,0.361,0.34,0.521
	c0.141,0.16,0.311,0.32,0.51,0.477l0.291,0.236l-0.971,1.18l-0.293-0.244c-0.764-0.621-1.225-1.279-1.395-1.955
	c-0.15-0.68,0.064-1.379,0.66-2.082c0.535-0.676,1.139-1.02,1.799-1.07c0.668-0.045,1.328,0.209,2.018,0.762
	c0.244,0.203,0.461,0.43,0.648,0.652c0.189,0.229,0.34,0.465,0.461,0.729c0.123,0.26,0.219,0.49,0.273,0.68
	c0.076,0.184,0.148,0.434,0.236,0.748l0.959,4.219l2.395-2.938l1.178,0.959l-3.359,4.105L625.488,594.314z"/>
</svg>
